Track 0:
MetaMessage('track_name', name='Piano\x00', time=0), total_time: 0
MetaMessage('time_signature', numerator=4, denominator=4, clocks_per_click=24, notated_32nd_notes_per_beat=8, time=0), total_time: 0
MetaMessage('key_signature', key='C', time=0), total_time: 0
MetaMessage('set_tempo', tempo=500000, time=0), total_time: 0
control_change channel=0 control=121 value=0 time=0, total_time: 0
program_change channel=0 program=0 time=0, total_time: 0
control_change channel=0 control=7 value=100 time=0, total_time: 0
control_change channel=0 control=10 value=64 time=0, total_time: 0
control_change channel=0 control=91 value=0 time=0, total_time: 0
control_change channel=0 control=93 value=0 time=0, total_time: 0
MetaMessage('midi_port', port=0, time=0), total_time: 0
note_on channel=0 note=60 velocity=80 time=0, total_time: 0
note_on channel=0 note=60 velocity=0 time=455, total_time: 455
note_on channel=0 note=60 velocity=80 time=25, total_time: 480
note_on channel=0 note=60 velocity=0 time=455, total_time: 935
note_on channel=0 note=67 velocity=80 time=25, total_time: 960
note_on channel=0 note=67 velocity=0 time=455, total_time: 1415
note_on channel=0 note=67 velocity=80 time=25, total_time: 1440
note_on channel=0 note=67 velocity=0 time=455, total_time: 1895
note_on channel=0 note=69 velocity=80 time=25, total_time: 1920
note_on channel=0 note=69 velocity=0 time=455, total_time: 2375
note_on channel=0 note=69 velocity=80 time=25, total_time: 2400
note_on channel=0 note=69 velocity=0 time=455, total_time: 2855
note_on channel=0 note=67 velocity=80 time=25, total_time: 2880
note_on channel=0 note=67 velocity=0 time=911, total_time: 3791
note_on channel=0 note=65 velocity=80 time=49, total_time: 3840
note_on channel=0 note=65 velocity=0 time=455, total_time: 4295
note_on channel=0 note=65 velocity=80 time=25, total_time: 4320
note_on channel=0 note=65 velocity=0 time=455, total_time: 4775
note_on channel=0 note=64 velocity=80 time=25, total_time: 4800
note_on channel=0 note=64 velocity=0 time=455, total_time: 5255
note_on channel=0 note=64 velocity=80 time=25, total_time: 5280
note_on channel=0 note=64 velocity=0 time=455, total_time: 5735
note_on channel=0 note=62 velocity=80 time=25, total_time: 5760
note_on channel=0 note=62 velocity=0 time=455, total_time: 6215
note_on channel=0 note=62 velocity=80 time=25, total_time: 6240
note_on channel=0 note=62 velocity=0 time=455, total_time: 6695
note_on channel=0 note=60 velocity=80 time=25, total_time: 6720
note_on channel=0 note=60 velocity=0 time=911, total_time: 7631
note_on channel=0 note=67 velocity=80 time=49, total_time: 7680
note_on channel=0 note=67 velocity=0 time=455, total_time: 8135
note_on channel=0 note=67 velocity=80 time=25, total_time: 8160
note_on channel=0 note=67 velocity=0 time=455, total_time: 8615
note_on channel=0 note=65 velocity=80 time=25, total_time: 8640
note_on channel=0 note=65 velocity=0 time=455, total_time: 9095
note_on channel=0 note=65 velocity=80 time=25, total_time: 9120
note_on channel=0 note=65 velocity=0 time=455, total_time: 9575
note_on channel=0 note=64 velocity=80 time=25, total_time: 9600
note_on channel=0 note=64 velocity=0 time=455, total_time: 10055
note_on channel=0 note=64 velocity=80 time=25, total_time: 10080
note_on channel=0 note=64 velocity=0 time=455, total_time: 10535
note_on channel=0 note=62 velocity=80 time=25, total_time: 10560
note_on channel=0 note=62 velocity=0 time=911, total_time: 11471
note_on channel=0 note=67 velocity=80 time=49, total_time: 11520
note_on channel=0 note=67 velocity=0 time=455, total_time: 11975
note_on channel=0 note=67 velocity=80 time=25, total_time: 12000
note_on channel=0 note=67 velocity=0 time=455, total_time: 12455
note_on channel=0 note=65 velocity=80 time=25, total_time: 12480
note_on channel=0 note=65 velocity=0 time=455, total_time: 12935
note_on channel=0 note=65 velocity=80 time=25, total_time: 12960
note_on channel=0 note=65 velocity=0 time=455, total_time: 13415
note_on channel=0 note=64 velocity=80 time=25, total_time: 13440
note_on channel=0 note=64 velocity=0 time=455, total_time: 13895
note_on channel=0 note=64 velocity=80 time=25, total_time: 13920
note_on channel=0 note=64 velocity=0 time=455, total_time: 14375
note_on channel=0 note=62 velocity=80 time=25, total_time: 14400
note_on channel=0 note=62 velocity=0 time=911, total_time: 15311
note_on channel=0 note=60 velocity=80 time=49, total_time: 15360
note_on channel=0 note=60 velocity=0 time=455, total_time: 15815
note_on channel=0 note=60 velocity=80 time=25, total_time: 15840
note_on channel=0 note=60 velocity=0 time=455, total_time: 16295
note_on channel=0 note=67 velocity=80 time=25, total_time: 16320
note_on channel=0 note=67 velocity=0 time=455, total_time: 16775
note_on channel=0 note=67 velocity=80 time=25, total_time: 16800
note_on channel=0 note=67 velocity=0 time=455, total_time: 17255
note_on channel=0 note=69 velocity=80 time=25, total_time: 17280
note_on channel=0 note=69 velocity=0 time=455, total_time: 17735
note_on channel=0 note=69 velocity=80 time=25, total_time: 17760
note_on channel=0 note=69 velocity=0 time=455, total_time: 18215
note_on channel=0 note=67 velocity=80 time=25, total_time: 18240
note_on channel=0 note=67 velocity=0 time=911, total_time: 19151
note_on channel=0 note=65 velocity=80 time=49, total_time: 19200
note_on channel=0 note=65 velocity=0 time=455, total_time: 19655
note_on channel=0 note=65 velocity=80 time=25, total_time: 19680
note_on channel=0 note=65 velocity=0 time=455, total_time: 20135
note_on channel=0 note=64 velocity=80 time=25, total_time: 20160
note_on channel=0 note=64 velocity=0 time=455, total_time: 20615
note_on channel=0 note=64 velocity=80 time=25, total_time: 20640
note_on channel=0 note=64 velocity=0 time=455, total_time: 21095
note_on channel=0 note=62 velocity=80 time=25, total_time: 21120
note_on channel=0 note=62 velocity=0 time=455, total_time: 21575
note_on channel=0 note=62 velocity=80 time=25, total_time: 21600
note_on channel=0 note=62 velocity=0 time=455, total_time: 22055
note_on channel=0 note=60 velocity=80 time=25, total_time: 22080
note_on channel=0 note=60 velocity=0 time=911, total_time: 22991
MetaMessage('end_of_track', time=1), total_time: 22992

Track 1:
MetaMessage('track_name', name='Piano\x00', time=0), total_time: 0
MetaMessage('key_signature', key='C', time=0), total_time: 0
MetaMessage('midi_port', port=0, time=0), total_time: 0
note_on channel=0 note=48 velocity=80 time=0, total_time: 0
note_on channel=0 note=48 velocity=0 time=227, total_time: 227
note_on channel=0 note=55 velocity=80 time=13, total_time: 240
note_on channel=0 note=55 velocity=0 time=227, total_time: 467
note_on channel=0 note=52 velocity=80 time=13, total_time: 480
note_on channel=0 note=52 velocity=0 time=227, total_time: 707
note_on channel=0 note=55 velocity=80 time=13, total_time: 720
note_on channel=0 note=55 velocity=0 time=227, total_time: 947
note_on channel=0 note=48 velocity=80 time=13, total_time: 960
note_on channel=0 note=48 velocity=0 time=227, total_time: 1187
note_on channel=0 note=55 velocity=80 time=13, total_time: 1200
note_on channel=0 note=55 velocity=0 time=227, total_time: 1427
note_on channel=0 note=52 velocity=80 time=13, total_time: 1440
note_on channel=0 note=52 velocity=0 time=227, total_time: 1667
note_on channel=0 note=55 velocity=80 time=13, total_time: 1680
note_on channel=0 note=55 velocity=0 time=227, total_time: 1907
note_on channel=0 note=48 velocity=80 time=13, total_time: 1920
note_on channel=0 note=48 velocity=0 time=227, total_time: 2147
note_on channel=0 note=57 velocity=80 time=13, total_time: 2160
note_on channel=0 note=57 velocity=0 time=227, total_time: 2387
note_on channel=0 note=53 velocity=80 time=13, total_time: 2400
note_on channel=0 note=53 velocity=0 time=227, total_time: 2627
note_on channel=0 note=57 velocity=80 time=13, total_time: 2640
note_on channel=0 note=57 velocity=0 time=227, total_time: 2867
note_on channel=0 note=48 velocity=80 time=13, total_time: 2880
note_on channel=0 note=48 velocity=0 time=227, total_time: 3107
note_on channel=0 note=55 velocity=80 time=13, total_time: 3120
note_on channel=0 note=55 velocity=0 time=227, total_time: 3347
note_on channel=0 note=52 velocity=80 time=13, total_time: 3360
note_on channel=0 note=52 velocity=0 time=227, total_time: 3587
note_on channel=0 note=55 velocity=80 time=13, total_time: 3600
note_on channel=0 note=55 velocity=0 time=227, total_time: 3827
note_on channel=0 note=47 velocity=80 time=13, total_time: 3840
note_on channel=0 note=47 velocity=0 time=227, total_time: 4067
note_on channel=0 note=55 velocity=80 time=13, total_time: 4080
note_on channel=0 note=55 velocity=0 time=227, total_time: 4307
note_on channel=0 note=50 velocity=80 time=13, total_time: 4320
note_on channel=0 note=50 velocity=0 time=227, total_time: 4547
note_on channel=0 note=55 velocity=80 time=13, total_time: 4560
note_on channel=0 note=55 velocity=0 time=227, total_time: 4787
note_on channel=0 note=48 velocity=80 time=13, total_time: 4800
note_on channel=0 note=48 velocity=0 time=227, total_time: 5027
note_on channel=0 note=52 velocity=80 time=13, total_time: 5040
note_on channel=0 note=52 velocity=0 time=227, total_time: 5267
note_on channel=0 note=48 velocity=80 time=13, total_time: 5280
note_on channel=0 note=48 velocity=0 time=227, total_time: 5507
note_on channel=0 note=43 velocity=80 time=13, total_time: 5520
note_on channel=0 note=43 velocity=0 time=227, total_time: 5747
note_on channel=0 note=41 velocity=80 time=13, total_time: 5760
note_on channel=0 note=41 velocity=0 time=227, total_time: 5987
note_on channel=0 note=45 velocity=80 time=13, total_time: 6000
note_on channel=0 note=45 velocity=0 time=227, total_time: 6227
note_on channel=0 note=43 velocity=80 time=13, total_time: 6240
note_on channel=0 note=43 velocity=0 time=227, total_time: 6467
note_on channel=0 note=47 velocity=80 time=13, total_time: 6480
note_on channel=0 note=47 velocity=0 time=227, total_time: 6707
note_on channel=0 note=48 velocity=80 time=13, total_time: 6720
note_on channel=0 note=48 velocity=0 time=227, total_time: 6947
note_on channel=0 note=43 velocity=80 time=13, total_time: 6960
note_on channel=0 note=43 velocity=0 time=227, total_time: 7187
note_on channel=0 note=36 velocity=80 time=13, total_time: 7200
note_on channel=0 note=36 velocity=0 time=455, total_time: 7655
note_on channel=0 note=43 velocity=80 time=25, total_time: 7680
note_on channel=0 note=43 velocity=0 time=227, total_time: 7907
note_on channel=0 note=52 velocity=80 time=13, total_time: 7920
note_on channel=0 note=52 velocity=0 time=227, total_time: 8147
note_on channel=0 note=48 velocity=80 time=13, total_time: 8160
note_on channel=0 note=48 velocity=0 time=227, total_time: 8387
note_on channel=0 note=52 velocity=80 time=13, total_time: 8400
note_on channel=0 note=52 velocity=0 time=227, total_time: 8627
note_on channel=0 note=43 velocity=80 time=13, total_time: 8640
note_on channel=0 note=43 velocity=0 time=227, total_time: 8867
note_on channel=0 note=53 velocity=80 time=13, total_time: 8880
note_on channel=0 note=53 velocity=0 time=227, total_time: 9107
note_on channel=0 note=50 velocity=80 time=13, total_time: 9120
note_on channel=0 note=50 velocity=0 time=227, total_time: 9347
note_on channel=0 note=53 velocity=80 time=13, total_time: 9360
note_on channel=0 note=53 velocity=0 time=227, total_time: 9587
note_on channel=0 note=43 velocity=80 time=13, total_time: 9600
note_on channel=0 note=43 velocity=0 time=227, total_time: 9827
note_on channel=0 note=52 velocity=80 time=13, total_time: 9840
note_on channel=0 note=52 velocity=0 time=227, total_time: 10067
note_on channel=0 note=48 velocity=80 time=13, total_time: 10080
note_on channel=0 note=48 velocity=0 time=227, total_time: 10307
note_on channel=0 note=52 velocity=80 time=13, total_time: 10320
note_on channel=0 note=52 velocity=0 time=227, total_time: 10547
note_on channel=0 note=43 velocity=80 time=13, total_time: 10560
note_on channel=0 note=43 velocity=0 time=227, total_time: 10787
note_on channel=0 note=50 velocity=80 time=13, total_time: 10800
note_on channel=0 note=50 velocity=0 time=227, total_time: 11027
note_on channel=0 note=47 velocity=80 time=13, total_time: 11040
note_on channel=0 note=47 velocity=0 time=227, total_time: 11267
note_on channel=0 note=50 velocity=80 time=13, total_time: 11280
note_on channel=0 note=50 velocity=0 time=227, total_time: 11507
note_on channel=0 note=43 velocity=80 time=13, total_time: 11520
note_on channel=0 note=43 velocity=0 time=227, total_time: 11747
note_on channel=0 note=52 velocity=80 time=13, total_time: 11760
note_on channel=0 note=52 velocity=0 time=227, total_time: 11987
note_on channel=0 note=48 velocity=80 time=13, total_time: 12000
note_on channel=0 note=48 velocity=0 time=227, total_time: 12227
note_on channel=0 note=52 velocity=80 time=13, total_time: 12240
note_on channel=0 note=52 velocity=0 time=227, total_time: 12467
note_on channel=0 note=43 velocity=80 time=13, total_time: 12480
note_on channel=0 note=43 velocity=0 time=227, total_time: 12707
note_on channel=0 note=53 velocity=80 time=13, total_time: 12720
note_on channel=0 note=53 velocity=0 time=227, total_time: 12947
note_on channel=0 note=50 velocity=80 time=13, total_time: 12960
note_on channel=0 note=50 velocity=0 time=227, total_time: 13187
note_on channel=0 note=53 velocity=80 time=13, total_time: 13200
note_on channel=0 note=53 velocity=0 time=227, total_time: 13427
note_on channel=0 note=43 velocity=80 time=13, total_time: 13440
note_on channel=0 note=43 velocity=0 time=227, total_time: 13667
note_on channel=0 note=52 velocity=80 time=13, total_time: 13680
note_on channel=0 note=52 velocity=0 time=227, total_time: 13907
note_on channel=0 note=48 velocity=80 time=13, total_time: 13920
note_on channel=0 note=48 velocity=0 time=227, total_time: 14147
note_on channel=0 note=52 velocity=80 time=13, total_time: 14160
note_on channel=0 note=52 velocity=0 time=227, total_time: 14387
note_on channel=0 note=43 velocity=80 time=13, total_time: 14400
note_on channel=0 note=43 velocity=0 time=227, total_time: 14627
note_on channel=0 note=50 velocity=80 time=13, total_time: 14640
note_on channel=0 note=50 velocity=0 time=227, total_time: 14867
note_on channel=0 note=47 velocity=80 time=13, total_time: 14880
note_on channel=0 note=47 velocity=0 time=227, total_time: 15107
note_on channel=0 note=50 velocity=80 time=13, total_time: 15120
note_on channel=0 note=50 velocity=0 time=227, total_time: 15347
note_on channel=0 note=48 velocity=80 time=13, total_time: 15360
note_on channel=0 note=48 velocity=0 time=227, total_time: 15587
note_on channel=0 note=55 velocity=80 time=13, total_time: 15600
note_on channel=0 note=55 velocity=0 time=227, total_time: 15827
note_on channel=0 note=52 velocity=80 time=13, total_time: 15840
note_on channel=0 note=52 velocity=0 time=227, total_time: 16067
note_on channel=0 note=55 velocity=80 time=13, total_time: 16080
note_on channel=0 note=55 velocity=0 time=227, total_time: 16307
note_on channel=0 note=48 velocity=80 time=13, total_time: 16320
note_on channel=0 note=48 velocity=0 time=227, total_time: 16547
note_on channel=0 note=55 velocity=80 time=13, total_time: 16560
note_on channel=0 note=55 velocity=0 time=227, total_time: 16787
note_on channel=0 note=52 velocity=80 time=13, total_time: 16800
note_on channel=0 note=52 velocity=0 time=227, total_time: 17027
note_on channel=0 note=55 velocity=80 time=13, total_time: 17040
note_on channel=0 note=55 velocity=0 time=227, total_time: 17267
note_on channel=0 note=48 velocity=80 time=13, total_time: 17280
note_on channel=0 note=48 velocity=0 time=227, total_time: 17507
note_on channel=0 note=57 velocity=80 time=13, total_time: 17520
note_on channel=0 note=57 velocity=0 time=227, total_time: 17747
note_on channel=0 note=53 velocity=80 time=13, total_time: 17760
note_on channel=0 note=53 velocity=0 time=227, total_time: 17987
note_on channel=0 note=57 velocity=80 time=13, total_time: 18000
note_on channel=0 note=57 velocity=0 time=227, total_time: 18227
note_on channel=0 note=48 velocity=80 time=13, total_time: 18240
note_on channel=0 note=48 velocity=0 time=227, total_time: 18467
note_on channel=0 note=55 velocity=80 time=13, total_time: 18480
note_on channel=0 note=55 velocity=0 time=227, total_time: 18707
note_on channel=0 note=52 velocity=80 time=13, total_time: 18720
note_on channel=0 note=52 velocity=0 time=227, total_time: 18947
note_on channel=0 note=55 velocity=80 time=13, total_time: 18960
note_on channel=0 note=55 velocity=0 time=227, total_time: 19187
note_on channel=0 note=47 velocity=80 time=13, total_time: 19200
note_on channel=0 note=47 velocity=0 time=227, total_time: 19427
note_on channel=0 note=55 velocity=80 time=13, total_time: 19440
note_on channel=0 note=55 velocity=0 time=227, total_time: 19667
note_on channel=0 note=50 velocity=80 time=13, total_time: 19680
note_on channel=0 note=50 velocity=0 time=227, total_time: 19907
note_on channel=0 note=55 velocity=80 time=13, total_time: 19920
note_on channel=0 note=55 velocity=0 time=227, total_time: 20147
note_on channel=0 note=48 velocity=80 time=13, total_time: 20160
note_on channel=0 note=48 velocity=0 time=227, total_time: 20387
note_on channel=0 note=52 velocity=80 time=13, total_time: 20400
note_on channel=0 note=52 velocity=0 time=227, total_time: 20627
note_on channel=0 note=48 velocity=80 time=13, total_time: 20640
note_on channel=0 note=48 velocity=0 time=227, total_time: 20867
note_on channel=0 note=43 velocity=80 time=13, total_time: 20880
note_on channel=0 note=43 velocity=0 time=227, total_time: 21107
note_on channel=0 note=41 velocity=80 time=13, total_time: 21120
note_on channel=0 note=41 velocity=0 time=227, total_time: 21347
note_on channel=0 note=45 velocity=80 time=13, total_time: 21360
note_on channel=0 note=45 velocity=0 time=227, total_time: 21587
note_on channel=0 note=43 velocity=80 time=13, total_time: 21600
note_on channel=0 note=43 velocity=0 time=227, total_time: 21827
note_on channel=0 note=47 velocity=80 time=13, total_time: 21840
note_on channel=0 note=47 velocity=0 time=227, total_time: 22067
note_on channel=0 note=48 velocity=80 time=13, total_time: 22080
note_on channel=0 note=48 velocity=0 time=227, total_time: 22307
note_on channel=0 note=43 velocity=80 time=13, total_time: 22320
note_on channel=0 note=43 velocity=0 time=227, total_time: 22547
note_on channel=0 note=36 velocity=80 time=13, total_time: 22560
note_on channel=0 note=36 velocity=0 time=455, total_time: 23015
MetaMessage('end_of_track', time=1), total_time: 23016

