Track 0:
MetaMessage('track_name', name='Piano\x00', time=0), total_time: 0
MetaMessage('time_signature', numerator=4, denominator=4, clocks_per_click=24, notated_32nd_notes_per_beat=8, time=0), total_time: 0
MetaMessage('key_signature', key='F', time=0), total_time: 0
MetaMessage('set_tempo', tempo=600000, time=0), total_time: 0
control_change channel=0 control=121 value=0 time=0, total_time: 0
program_change channel=0 program=0 time=0, total_time: 0
control_change channel=0 control=7 value=100 time=0, total_time: 0
control_change channel=0 control=10 value=64 time=0, total_time: 0
control_change channel=0 control=91 value=0 time=0, total_time: 0
control_change channel=0 control=93 value=0 time=0, total_time: 0
MetaMessage('midi_port', port=0, time=0), total_time: 0
note_on channel=0 note=65 velocity=87 time=1440, total_time: 1440
note_on channel=0 note=65 velocity=0 time=227, total_time: 1667
note_on channel=0 note=67 velocity=87 time=13, total_time: 1680
note_on channel=0 note=67 velocity=0 time=227, total_time: 1907
note_on channel=0 note=69 velocity=87 time=13, total_time: 1920
note_on channel=0 note=69 velocity=0 time=455, total_time: 2375
note_on channel=0 note=72 velocity=87 time=25, total_time: 2400
note_on channel=0 note=72 velocity=0 time=455, total_time: 2855
note_on channel=0 note=67 velocity=87 time=25, total_time: 2880
note_on channel=0 note=67 velocity=0 time=455, total_time: 3335
note_on channel=0 note=72 velocity=87 time=25, total_time: 3360
note_on channel=0 note=72 velocity=0 time=455, total_time: 3815
note_on channel=0 note=65 velocity=87 time=25, total_time: 3840
note_on channel=0 note=65 velocity=0 time=911, total_time: 4751
note_on channel=0 note=65 velocity=87 time=529, total_time: 5280
note_on channel=0 note=65 velocity=0 time=227, total_time: 5507
note_on channel=0 note=64 velocity=87 time=13, total_time: 5520
note_on channel=0 note=64 velocity=0 time=227, total_time: 5747
note_on channel=0 note=62 velocity=87 time=13, total_time: 5760
note_on channel=0 note=62 velocity=0 time=455, total_time: 6215
note_on channel=0 note=69 velocity=87 time=25, total_time: 6240
note_on channel=0 note=69 velocity=0 time=455, total_time: 6695
note_on channel=0 note=67 velocity=87 time=25, total_time: 6720
note_on channel=0 note=67 velocity=0 time=455, total_time: 7175
note_on channel=0 note=72 velocity=87 time=25, total_time: 7200
note_on channel=0 note=72 velocity=0 time=455, total_time: 7655
note_on channel=0 note=69 velocity=87 time=25, total_time: 7680
note_on channel=0 note=69 velocity=0 time=911, total_time: 8591
note_on channel=0 note=65 velocity=87 time=529, total_time: 9120
note_on channel=0 note=65 velocity=0 time=227, total_time: 9347
note_on channel=0 note=67 velocity=87 time=13, total_time: 9360
note_on channel=0 note=67 velocity=0 time=227, total_time: 9587
note_on channel=0 note=69 velocity=87 time=13, total_time: 9600
note_on channel=0 note=69 velocity=0 time=455, total_time: 10055
note_on channel=0 note=72 velocity=87 time=25, total_time: 10080
note_on channel=0 note=72 velocity=0 time=455, total_time: 10535
note_on channel=0 note=67 velocity=87 time=25, total_time: 10560
note_on channel=0 note=67 velocity=0 time=455, total_time: 11015
note_on channel=0 note=64 velocity=87 time=25, total_time: 11040
note_on channel=0 note=64 velocity=0 time=455, total_time: 11495
note_on channel=0 note=65 velocity=87 time=25, total_time: 11520
note_on channel=0 note=65 velocity=0 time=911, total_time: 12431
note_on channel=0 note=65 velocity=87 time=529, total_time: 12960
note_on channel=0 note=65 velocity=0 time=227, total_time: 13187
note_on channel=0 note=64 velocity=87 time=13, total_time: 13200
note_on channel=0 note=64 velocity=0 time=227, total_time: 13427
note_on channel=0 note=62 velocity=87 time=13, total_time: 13440
note_on channel=0 note=62 velocity=0 time=455, total_time: 13895
note_on channel=0 note=69 velocity=87 time=25, total_time: 13920
note_on channel=0 note=69 velocity=0 time=455, total_time: 14375
note_on channel=0 note=64 velocity=87 time=25, total_time: 14400
note_on channel=0 note=64 velocity=0 time=455, total_time: 14855
note_on channel=0 note=60 velocity=87 time=25, total_time: 14880
note_on channel=0 note=60 velocity=0 time=455, total_time: 15335
note_on channel=0 note=62 velocity=87 time=25, total_time: 15360
note_on channel=0 note=62 velocity=0 time=911, total_time: 16271
note_on channel=0 note=65 velocity=87 time=529, total_time: 16800
note_on channel=0 note=65 velocity=0 time=227, total_time: 17027
note_on channel=0 note=67 velocity=87 time=13, total_time: 17040
note_on channel=0 note=67 velocity=0 time=227, total_time: 17267
note_on channel=0 note=69 velocity=87 time=13, total_time: 17280
note_on channel=0 note=69 velocity=0 time=455, total_time: 17735
note_on channel=0 note=72 velocity=87 time=25, total_time: 17760
note_on channel=0 note=72 velocity=0 time=455, total_time: 18215
note_on channel=0 note=67 velocity=87 time=25, total_time: 18240
note_on channel=0 note=67 velocity=0 time=455, total_time: 18695
note_on channel=0 note=72 velocity=87 time=25, total_time: 18720
note_on channel=0 note=72 velocity=0 time=455, total_time: 19175
note_on channel=0 note=65 velocity=87 time=25, total_time: 19200
note_on channel=0 note=65 velocity=0 time=911, total_time: 20111
note_on channel=0 note=65 velocity=87 time=529, total_time: 20640
note_on channel=0 note=65 velocity=0 time=227, total_time: 20867
note_on channel=0 note=64 velocity=87 time=13, total_time: 20880
note_on channel=0 note=64 velocity=0 time=227, total_time: 21107
note_on channel=0 note=58 velocity=87 time=13, total_time: 21120
note_on channel=0 note=62 velocity=87 time=0, total_time: 21120
note_on channel=0 note=58 velocity=0 time=455, total_time: 21575
note_on channel=0 note=62 velocity=0 time=0, total_time: 21575
note_on channel=0 note=69 velocity=87 time=25, total_time: 21600
note_on channel=0 note=69 velocity=0 time=455, total_time: 22055
note_on channel=0 note=64 velocity=87 time=25, total_time: 22080
note_on channel=0 note=67 velocity=87 time=0, total_time: 22080
note_on channel=0 note=64 velocity=0 time=455, total_time: 22535
note_on channel=0 note=67 velocity=0 time=0, total_time: 22535
note_on channel=0 note=72 velocity=87 time=25, total_time: 22560
note_on channel=0 note=72 velocity=0 time=455, total_time: 23015
note_on channel=0 note=60 velocity=87 time=25, total_time: 23040
note_on channel=0 note=69 velocity=87 time=0, total_time: 23040
note_on channel=0 note=60 velocity=0 time=480, total_time: 23520
note_on channel=0 note=69 velocity=0 time=431, total_time: 23951
note_on channel=0 note=65 velocity=87 time=529, total_time: 24480
note_on channel=0 note=65 velocity=0 time=227, total_time: 24707
note_on channel=0 note=67 velocity=87 time=13, total_time: 24720
note_on channel=0 note=67 velocity=0 time=227, total_time: 24947
note_on channel=0 note=65 velocity=87 time=13, total_time: 24960
note_on channel=0 note=69 velocity=87 time=0, total_time: 24960
note_on channel=0 note=65 velocity=0 time=455, total_time: 25415
note_on channel=0 note=69 velocity=0 time=0, total_time: 25415
note_on channel=0 note=72 velocity=87 time=25, total_time: 25440
note_on channel=0 note=72 velocity=0 time=455, total_time: 25895
note_on channel=0 note=64 velocity=87 time=25, total_time: 25920
note_on channel=0 note=67 velocity=87 time=0, total_time: 25920
note_on channel=0 note=64 velocity=0 time=455, total_time: 26375
note_on channel=0 note=67 velocity=0 time=0, total_time: 26375
note_on channel=0 note=64 velocity=87 time=25, total_time: 26400
note_on channel=0 note=64 velocity=0 time=455, total_time: 26855
note_on channel=0 note=57 velocity=87 time=25, total_time: 26880
note_on channel=0 note=65 velocity=87 time=0, total_time: 26880
note_on channel=0 note=57 velocity=0 time=240, total_time: 27120
note_on channel=0 note=65 velocity=0 time=671, total_time: 27791
note_on channel=0 note=65 velocity=87 time=529, total_time: 28320
note_on channel=0 note=65 velocity=0 time=227, total_time: 28547
note_on channel=0 note=64 velocity=87 time=13, total_time: 28560
note_on channel=0 note=64 velocity=0 time=227, total_time: 28787
note_on channel=0 note=58 velocity=87 time=13, total_time: 28800
note_on channel=0 note=62 velocity=87 time=0, total_time: 28800
note_on channel=0 note=58 velocity=0 time=455, total_time: 29255
note_on channel=0 note=62 velocity=0 time=0, total_time: 29255
note_on channel=0 note=69 velocity=87 time=25, total_time: 29280
note_on channel=0 note=69 velocity=0 time=455, total_time: 29735
note_on channel=0 note=60 velocity=87 time=25, total_time: 29760
note_on channel=0 note=64 velocity=87 time=0, total_time: 29760
note_on channel=0 note=60 velocity=0 time=455, total_time: 30215
note_on channel=0 note=64 velocity=0 time=0, total_time: 30215
note_on channel=0 note=60 velocity=87 time=25, total_time: 30240
note_on channel=0 note=60 velocity=0 time=455, total_time: 30695
note_on channel=0 note=62 velocity=87 time=25, total_time: 30720
note_on channel=0 note=62 velocity=0 time=911, total_time: 31631
note_on channel=0 note=65 velocity=87 time=529, total_time: 32160
note_on channel=0 note=65 velocity=0 time=227, total_time: 32387
note_on channel=0 note=64 velocity=87 time=13, total_time: 32400
note_on channel=0 note=64 velocity=0 time=227, total_time: 32627
note_on channel=0 note=58 velocity=87 time=13, total_time: 32640
note_on channel=0 note=62 velocity=87 time=0, total_time: 32640
note_on channel=0 note=58 velocity=0 time=455, total_time: 33095
note_on channel=0 note=62 velocity=0 time=0, total_time: 33095
note_on channel=0 note=64 velocity=87 time=25, total_time: 33120
note_on channel=0 note=64 velocity=0 time=227, total_time: 33347
note_on channel=0 note=65 velocity=87 time=13, total_time: 33360
note_on channel=0 note=65 velocity=0 time=227, total_time: 33587
note_on channel=0 note=60 velocity=87 time=13, total_time: 33600
note_on channel=0 note=64 velocity=87 time=0, total_time: 33600
note_on channel=0 note=67 velocity=87 time=0, total_time: 33600
note_on channel=0 note=60 velocity=0 time=455, total_time: 34055
note_on channel=0 note=64 velocity=0 time=0, total_time: 34055
note_on channel=0 note=67 velocity=0 time=0, total_time: 34055
note_on channel=0 note=60 velocity=87 time=25, total_time: 34080
note_on channel=0 note=60 velocity=0 time=455, total_time: 34535
note_on channel=0 note=65 velocity=87 time=25, total_time: 34560
note_on channel=0 note=69 velocity=87 time=0, total_time: 34560
note_on channel=0 note=72 velocity=87 time=0, total_time: 34560
note_on channel=0 note=65 velocity=0 time=455, total_time: 35015
note_on channel=0 note=69 velocity=0 time=0, total_time: 35015
note_on channel=0 note=72 velocity=0 time=0, total_time: 35015
note_on channel=0 note=67 velocity=87 time=25, total_time: 35040
note_on channel=0 note=70 velocity=87 time=0, total_time: 35040
note_on channel=0 note=67 velocity=0 time=227, total_time: 35267
note_on channel=0 note=70 velocity=0 time=0, total_time: 35267
note_on channel=0 note=69 velocity=87 time=13, total_time: 35280
note_on channel=0 note=69 velocity=0 time=227, total_time: 35507
note_on channel=0 note=65 velocity=87 time=13, total_time: 35520
note_on channel=0 note=69 velocity=87 time=0, total_time: 35520
note_on channel=0 note=65 velocity=0 time=455, total_time: 35975
note_on channel=0 note=69 velocity=0 time=0, total_time: 35975
note_on channel=0 note=65 velocity=87 time=25, total_time: 36000
note_on channel=0 note=65 velocity=0 time=227, total_time: 36227
note_on channel=0 note=64 velocity=87 time=13, total_time: 36240
note_on channel=0 note=64 velocity=0 time=227, total_time: 36467
note_on channel=0 note=58 velocity=87 time=13, total_time: 36480
note_on channel=0 note=62 velocity=87 time=0, total_time: 36480
note_on channel=0 note=58 velocity=0 time=455, total_time: 36935
note_on channel=0 note=62 velocity=0 time=0, total_time: 36935
note_on channel=0 note=64 velocity=87 time=25, total_time: 36960
note_on channel=0 note=64 velocity=0 time=227, total_time: 37187
note_on channel=0 note=65 velocity=87 time=13, total_time: 37200
note_on channel=0 note=65 velocity=0 time=227, total_time: 37427
note_on channel=0 note=60 velocity=87 time=13, total_time: 37440
note_on channel=0 note=64 velocity=87 time=0, total_time: 37440
note_on channel=0 note=67 velocity=87 time=0, total_time: 37440
note_on channel=0 note=60 velocity=0 time=455, total_time: 37895
note_on channel=0 note=64 velocity=0 time=0, total_time: 37895
note_on channel=0 note=67 velocity=0 time=0, total_time: 37895
note_on channel=0 note=60 velocity=87 time=25, total_time: 37920
note_on channel=0 note=60 velocity=0 time=455, total_time: 38375
note_on channel=0 note=61 velocity=87 time=25, total_time: 38400
note_on channel=0 note=64 velocity=87 time=26, total_time: 38426
note_on channel=0 note=69 velocity=87 time=27, total_time: 38453
note_on channel=0 note=64 velocity=0 time=185, total_time: 38638
note_on channel=0 note=69 velocity=0 time=0, total_time: 38638
note_on channel=0 note=61 velocity=0 time=1, total_time: 38639
note_on channel=0 note=69 velocity=87 time=1, total_time: 38640
note_on channel=0 note=69 velocity=0 time=227, total_time: 38867
note_on channel=0 note=57 velocity=87 time=13, total_time: 38880
note_on channel=0 note=61 velocity=87 time=0, total_time: 38880
note_on channel=0 note=67 velocity=87 time=0, total_time: 38880
note_on channel=0 note=57 velocity=0 time=227, total_time: 39107
note_on channel=0 note=61 velocity=0 time=0, total_time: 39107
note_on channel=0 note=67 velocity=0 time=0, total_time: 39107
note_on channel=0 note=67 velocity=87 time=13, total_time: 39120
note_on channel=0 note=67 velocity=0 time=227, total_time: 39347
note_on channel=0 note=57 velocity=87 time=13, total_time: 39360
note_on channel=0 note=62 velocity=87 time=0, total_time: 39360
note_on channel=0 note=65 velocity=87 time=0, total_time: 39360
note_on channel=0 note=57 velocity=0 time=455, total_time: 39815
note_on channel=0 note=62 velocity=0 time=0, total_time: 39815
note_on channel=0 note=65 velocity=0 time=0, total_time: 39815
note_on channel=0 note=64 velocity=87 time=265, total_time: 40080
note_on channel=0 note=64 velocity=0 time=227, total_time: 40307
note_on channel=0 note=55 velocity=87 time=13, total_time: 40320
note_on channel=0 note=58 velocity=87 time=0, total_time: 40320
note_on channel=0 note=62 velocity=87 time=0, total_time: 40320
note_on channel=0 note=58 velocity=0 time=720, total_time: 41040
note_on channel=0 note=55 velocity=0 time=191, total_time: 41231
note_on channel=0 note=62 velocity=0 time=0, total_time: 41231
note_on channel=0 note=64 velocity=87 time=529, total_time: 41760
note_on channel=0 note=64 velocity=0 time=455, total_time: 42215
note_on channel=0 note=57 velocity=87 time=25, total_time: 42240
note_on channel=0 note=60 velocity=87 time=0, total_time: 42240
note_on channel=0 note=57 velocity=0 time=683, total_time: 42923
note_on channel=0 note=60 velocity=0 time=0, total_time: 42923
note_on channel=0 note=67 velocity=87 time=37, total_time: 42960
note_on channel=0 note=67 velocity=0 time=227, total_time: 43187
note_on channel=0 note=57 velocity=87 time=13, total_time: 43200
note_on channel=0 note=62 velocity=87 time=0, total_time: 43200
note_on channel=0 note=65 velocity=87 time=0, total_time: 43200
note_on channel=0 note=57 velocity=0 time=240, total_time: 43440
note_on channel=0 note=62 velocity=0 time=215, total_time: 43655
note_on channel=0 note=65 velocity=0 time=0, total_time: 43655
note_on channel=0 note=67 velocity=87 time=265, total_time: 43920
note_on channel=0 note=67 velocity=0 time=113, total_time: 44033
note_on channel=0 note=69 velocity=87 time=7, total_time: 44040
note_on channel=0 note=69 velocity=0 time=113, total_time: 44153
note_on channel=0 note=70 velocity=87 time=7, total_time: 44160
note_on channel=0 note=70 velocity=0 time=239, total_time: 44399
note_on channel=0 note=69 velocity=87 time=1, total_time: 44400
note_on channel=0 note=69 velocity=0 time=239, total_time: 44639
note_on channel=0 note=65 velocity=87 time=1, total_time: 44640
note_on channel=0 note=65 velocity=0 time=239, total_time: 44879
note_on channel=0 note=61 velocity=87 time=1, total_time: 44880
note_on channel=0 note=61 velocity=0 time=239, total_time: 45119
note_on channel=0 note=60 velocity=87 time=1, total_time: 45120
note_on channel=0 note=60 velocity=0 time=683, total_time: 45803
note_on channel=0 note=67 velocity=87 time=37, total_time: 45840
note_on channel=0 note=67 velocity=0 time=227, total_time: 46067
note_on channel=0 note=58 velocity=87 time=13, total_time: 46080
note_on channel=0 note=60 velocity=87 time=0, total_time: 46080
note_on channel=0 note=65 velocity=87 time=0, total_time: 46080
note_on channel=0 note=58 velocity=0 time=911, total_time: 46991
note_on channel=0 note=57 velocity=87 time=49, total_time: 47040
note_on channel=0 note=60 velocity=0 time=407, total_time: 47447
note_on channel=0 note=65 velocity=0 time=0, total_time: 47447
note_on channel=0 note=57 velocity=0 time=48, total_time: 47495
note_on channel=0 note=65 velocity=87 time=25, total_time: 47520
note_on channel=0 note=65 velocity=0 time=227, total_time: 47747
note_on channel=0 note=67 velocity=87 time=13, total_time: 47760
note_on channel=0 note=67 velocity=0 time=159, total_time: 47919
note_on channel=0 note=67 velocity=87 time=81, total_time: 48000
note_on channel=0 note=67 velocity=0 time=23, total_time: 48023
note_on channel=0 note=69 velocity=87 time=1, total_time: 48024
note_on channel=0 note=69 velocity=0 time=205, total_time: 48229
note_on channel=0 note=60 velocity=87 time=11, total_time: 48240
note_on channel=0 note=60 velocity=0 time=159, total_time: 48399
note_on channel=0 note=72 velocity=87 time=81, total_time: 48480
note_on channel=0 note=72 velocity=0 time=119, total_time: 48599
note_on channel=0 note=69 velocity=87 time=121, total_time: 48720
note_on channel=0 note=69 velocity=0 time=119, total_time: 48839
note_on channel=0 note=67 velocity=87 time=121, total_time: 48960
note_on channel=0 note=67 velocity=0 time=227, total_time: 49187
note_on channel=0 note=60 velocity=87 time=13, total_time: 49200
note_on channel=0 note=60 velocity=0 time=159, total_time: 49359
note_on channel=0 note=72 velocity=87 time=81, total_time: 49440
note_on channel=0 note=72 velocity=0 time=119, total_time: 49559
note_on channel=0 note=67 velocity=87 time=121, total_time: 49680
note_on channel=0 note=67 velocity=0 time=119, total_time: 49799
note_on channel=0 note=65 velocity=87 time=121, total_time: 49920
note_on channel=0 note=65 velocity=0 time=227, total_time: 50147
note_on channel=0 note=57 velocity=87 time=13, total_time: 50160
note_on channel=0 note=57 velocity=0 time=159, total_time: 50319
note_on channel=0 note=69 velocity=87 time=81, total_time: 50400
note_on channel=0 note=69 velocity=0 time=119, total_time: 50519
note_on channel=0 note=65 velocity=87 time=121, total_time: 50640
note_on channel=0 note=65 velocity=0 time=119, total_time: 50759
note_on channel=0 note=64 velocity=87 time=121, total_time: 50880
note_on channel=0 note=64 velocity=0 time=455, total_time: 51335
note_on channel=0 note=65 velocity=87 time=265, total_time: 51600
note_on channel=0 note=65 velocity=0 time=113, total_time: 51713
note_on channel=0 note=64 velocity=87 time=7, total_time: 51720
note_on channel=0 note=64 velocity=0 time=113, total_time: 51833
note_on channel=0 note=58 velocity=87 time=7, total_time: 51840
note_on channel=0 note=62 velocity=87 time=0, total_time: 51840
note_on channel=0 note=58 velocity=0 time=227, total_time: 52067
note_on channel=0 note=62 velocity=0 time=0, total_time: 52067
note_on channel=0 note=64 velocity=87 time=13, total_time: 52080
note_on channel=0 note=64 velocity=0 time=113, total_time: 52193
note_on channel=0 note=65 velocity=87 time=7, total_time: 52200
note_on channel=0 note=65 velocity=0 time=113, total_time: 52313
note_on channel=0 note=58 velocity=87 time=7, total_time: 52320
note_on channel=0 note=62 velocity=87 time=0, total_time: 52320
note_on channel=0 note=67 velocity=87 time=0, total_time: 52320
note_on channel=0 note=58 velocity=0 time=159, total_time: 52479
note_on channel=0 note=62 velocity=0 time=0, total_time: 52479
note_on channel=0 note=67 velocity=0 time=0, total_time: 52479
note_on channel=0 note=60 velocity=87 time=81, total_time: 52560
note_on channel=0 note=60 velocity=0 time=119, total_time: 52679
note_on channel=0 note=67 velocity=87 time=121, total_time: 52800
note_on channel=0 note=72 velocity=87 time=0, total_time: 52800
note_on channel=0 note=67 velocity=0 time=119, total_time: 52919
note_on channel=0 note=72 velocity=0 time=0, total_time: 52919
note_on channel=0 note=60 velocity=87 time=121, total_time: 53040
note_on channel=0 note=60 velocity=0 time=119, total_time: 53159
note_on channel=0 note=67 velocity=87 time=121, total_time: 53280
note_on channel=0 note=70 velocity=87 time=0, total_time: 53280
note_on channel=0 note=67 velocity=0 time=119, total_time: 53399
note_on channel=0 note=70 velocity=0 time=0, total_time: 53399
note_on channel=0 note=60 velocity=87 time=121, total_time: 53520
note_on channel=0 note=60 velocity=0 time=119, total_time: 53639
note_on channel=0 note=65 velocity=87 time=121, total_time: 53760
note_on channel=0 note=69 velocity=87 time=0, total_time: 53760
note_on channel=0 note=65 velocity=0 time=911, total_time: 54671
note_on channel=0 note=69 velocity=0 time=0, total_time: 54671
note_on channel=0 note=65 velocity=87 time=529, total_time: 55200
note_on channel=0 note=65 velocity=0 time=119, total_time: 55319
note_on channel=0 note=67 velocity=87 time=121, total_time: 55440
note_on channel=0 note=67 velocity=0 time=119, total_time: 55559
note_on channel=0 note=67 velocity=87 time=121, total_time: 55680
note_on channel=0 note=67 velocity=0 time=23, total_time: 55703
note_on channel=0 note=69 velocity=87 time=1, total_time: 55704
note_on channel=0 note=69 velocity=0 time=205, total_time: 55909
note_on channel=0 note=60 velocity=87 time=11, total_time: 55920
note_on channel=0 note=60 velocity=0 time=159, total_time: 56079
note_on channel=0 note=72 velocity=87 time=81, total_time: 56160
note_on channel=0 note=72 velocity=0 time=119, total_time: 56279
note_on channel=0 note=69 velocity=87 time=121, total_time: 56400
note_on channel=0 note=69 velocity=0 time=119, total_time: 56519
note_on channel=0 note=67 velocity=87 time=121, total_time: 56640
note_on channel=0 note=67 velocity=0 time=227, total_time: 56867
note_on channel=0 note=60 velocity=87 time=13, total_time: 56880
note_on channel=0 note=60 velocity=0 time=159, total_time: 57039
note_on channel=0 note=72 velocity=87 time=81, total_time: 57120
note_on channel=0 note=72 velocity=0 time=119, total_time: 57239
note_on channel=0 note=67 velocity=87 time=121, total_time: 57360
note_on channel=0 note=67 velocity=0 time=119, total_time: 57479
note_on channel=0 note=65 velocity=87 time=121, total_time: 57600
note_on channel=0 note=65 velocity=0 time=227, total_time: 57827
note_on channel=0 note=72 velocity=87 time=13, total_time: 57840
note_on channel=0 note=72 velocity=0 time=159, total_time: 57999
note_on channel=0 note=76 velocity=87 time=81, total_time: 58080
note_on channel=0 note=79 velocity=87 time=0, total_time: 58080
note_on channel=0 note=76 velocity=0 time=119, total_time: 58199
note_on channel=0 note=79 velocity=0 time=0, total_time: 58199
note_on channel=0 note=77 velocity=87 time=121, total_time: 58320
note_on channel=0 note=81 velocity=87 time=0, total_time: 58320
note_on channel=0 note=77 velocity=0 time=119, total_time: 58439
note_on channel=0 note=81 velocity=0 time=0, total_time: 58439
note_on channel=0 note=74 velocity=87 time=121, total_time: 58560
note_on channel=0 note=77 velocity=87 time=0, total_time: 58560
note_on channel=0 note=74 velocity=0 time=455, total_time: 59015
note_on channel=0 note=77 velocity=0 time=0, total_time: 59015
note_on channel=0 note=74 velocity=87 time=265, total_time: 59280
note_on channel=0 note=77 velocity=87 time=0, total_time: 59280
note_on channel=0 note=74 velocity=0 time=59, total_time: 59339
note_on channel=0 note=77 velocity=0 time=0, total_time: 59339
note_on channel=0 note=72 velocity=87 time=61, total_time: 59400
note_on channel=0 note=76 velocity=87 time=0, total_time: 59400
note_on channel=0 note=72 velocity=0 time=59, total_time: 59459
note_on channel=0 note=76 velocity=0 time=0, total_time: 59459
note_on channel=0 note=70 velocity=87 time=61, total_time: 59520
note_on channel=0 note=74 velocity=87 time=0, total_time: 59520
note_on channel=0 note=70 velocity=0 time=320, total_time: 59840
note_on channel=0 note=74 velocity=0 time=0, total_time: 59840
note_on channel=0 note=77 velocity=87 time=160, total_time: 60000
note_on channel=0 note=81 velocity=87 time=0, total_time: 60000
note_on channel=0 note=77 velocity=0 time=320, total_time: 60320
note_on channel=0 note=81 velocity=0 time=0, total_time: 60320
note_on channel=0 note=72 velocity=87 time=160, total_time: 60480
note_on channel=0 note=76 velocity=87 time=0, total_time: 60480
note_on channel=0 note=72 velocity=0 time=320, total_time: 60800
note_on channel=0 note=76 velocity=0 time=0, total_time: 60800
note_on channel=0 note=64 velocity=87 time=160, total_time: 60960
note_on channel=0 note=72 velocity=87 time=0, total_time: 60960
note_on channel=0 note=64 velocity=0 time=320, total_time: 61280
note_on channel=0 note=72 velocity=0 time=0, total_time: 61280
note_on channel=0 note=65 velocity=87 time=160, total_time: 61440
note_on channel=0 note=74 velocity=87 time=0, total_time: 61440
note_on channel=0 note=65 velocity=0 time=911, total_time: 62351
note_on channel=0 note=74 velocity=0 time=0, total_time: 62351
note_on channel=0 note=77 velocity=87 time=529, total_time: 62880
note_on channel=0 note=77 velocity=0 time=119, total_time: 62999
note_on channel=0 note=79 velocity=87 time=121, total_time: 63120
note_on channel=0 note=79 velocity=0 time=119, total_time: 63239
note_on channel=0 note=81 velocity=87 time=121, total_time: 63360
note_on channel=0 note=81 velocity=0 time=119, total_time: 63479
note_on channel=0 note=72 velocity=87 time=1, total_time: 63480
note_on channel=0 note=72 velocity=0 time=113, total_time: 63593
note_on channel=0 note=74 velocity=87 time=7, total_time: 63600
note_on channel=0 note=74 velocity=0 time=113, total_time: 63713
note_on channel=0 note=72 velocity=87 time=7, total_time: 63720
note_on channel=0 note=72 velocity=0 time=113, total_time: 63833
note_on channel=0 note=84 velocity=87 time=7, total_time: 63840
note_on channel=0 note=84 velocity=0 time=59, total_time: 63899
note_on channel=0 note=72 velocity=87 time=61, total_time: 63960
note_on channel=0 note=72 velocity=0 time=113, total_time: 64073
note_on channel=0 note=81 velocity=87 time=7, total_time: 64080
note_on channel=0 note=81 velocity=0 time=59, total_time: 64139
note_on channel=0 note=72 velocity=87 time=61, total_time: 64200
note_on channel=0 note=72 velocity=0 time=113, total_time: 64313
note_on channel=0 note=79 velocity=87 time=7, total_time: 64320
note_on channel=0 note=79 velocity=0 time=119, total_time: 64439
note_on channel=0 note=72 velocity=87 time=1, total_time: 64440
note_on channel=0 note=72 velocity=0 time=113, total_time: 64553
note_on channel=0 note=74 velocity=87 time=7, total_time: 64560
note_on channel=0 note=74 velocity=0 time=113, total_time: 64673
note_on channel=0 note=72 velocity=87 time=7, total_time: 64680
note_on channel=0 note=72 velocity=0 time=113, total_time: 64793
note_on channel=0 note=84 velocity=87 time=7, total_time: 64800
note_on channel=0 note=84 velocity=0 time=59, total_time: 64859
note_on channel=0 note=72 velocity=87 time=61, total_time: 64920
note_on channel=0 note=72 velocity=0 time=113, total_time: 65033
note_on channel=0 note=79 velocity=87 time=7, total_time: 65040
note_on channel=0 note=79 velocity=0 time=59, total_time: 65099
note_on channel=0 note=72 velocity=87 time=61, total_time: 65160
note_on channel=0 note=72 velocity=0 time=113, total_time: 65273
note_on channel=0 note=77 velocity=87 time=7, total_time: 65280
note_on channel=0 note=77 velocity=0 time=119, total_time: 65399
note_on channel=0 note=69 velocity=87 time=1, total_time: 65400
note_on channel=0 note=69 velocity=0 time=113, total_time: 65513
note_on channel=0 note=74 velocity=87 time=7, total_time: 65520
note_on channel=0 note=74 velocity=0 time=113, total_time: 65633
note_on channel=0 note=69 velocity=87 time=7, total_time: 65640
note_on channel=0 note=69 velocity=0 time=113, total_time: 65753
note_on channel=0 note=81 velocity=87 time=7, total_time: 65760
note_on channel=0 note=81 velocity=0 time=59, total_time: 65819
note_on channel=0 note=69 velocity=87 time=61, total_time: 65880
note_on channel=0 note=69 velocity=0 time=113, total_time: 65993
note_on channel=0 note=77 velocity=87 time=7, total_time: 66000
note_on channel=0 note=77 velocity=0 time=59, total_time: 66059
note_on channel=0 note=69 velocity=87 time=61, total_time: 66120
note_on channel=0 note=69 velocity=0 time=113, total_time: 66233
note_on channel=0 note=76 velocity=87 time=7, total_time: 66240
note_on channel=0 note=76 velocity=0 time=479, total_time: 66719
note_on channel=0 note=77 velocity=87 time=241, total_time: 66960
note_on channel=0 note=77 velocity=0 time=113, total_time: 67073
note_on channel=0 note=76 velocity=87 time=7, total_time: 67080
note_on channel=0 note=76 velocity=0 time=113, total_time: 67193
note_on channel=0 note=70 velocity=87 time=7, total_time: 67200
note_on channel=0 note=74 velocity=87 time=0, total_time: 67200
note_on channel=0 note=70 velocity=0 time=227, total_time: 67427
note_on channel=0 note=74 velocity=0 time=0, total_time: 67427
note_on channel=0 note=76 velocity=87 time=13, total_time: 67440
note_on channel=0 note=76 velocity=0 time=113, total_time: 67553
note_on channel=0 note=77 velocity=87 time=7, total_time: 67560
note_on channel=0 note=77 velocity=0 time=113, total_time: 67673
note_on channel=0 note=79 velocity=87 time=7, total_time: 67680
note_on channel=0 note=79 velocity=0 time=119, total_time: 67799
note_on channel=0 note=72 velocity=87 time=121, total_time: 67920
note_on channel=0 note=72 velocity=0 time=119, total_time: 68039
note_on channel=0 note=79 velocity=87 time=121, total_time: 68160
note_on channel=0 note=84 velocity=87 time=0, total_time: 68160
note_on channel=0 note=79 velocity=0 time=119, total_time: 68279
note_on channel=0 note=84 velocity=0 time=0, total_time: 68279
note_on channel=0 note=72 velocity=87 time=121, total_time: 68400
note_on channel=0 note=72 velocity=0 time=119, total_time: 68519
note_on channel=0 note=79 velocity=87 time=121, total_time: 68640
note_on channel=0 note=82 velocity=87 time=0, total_time: 68640
note_on channel=0 note=79 velocity=0 time=119, total_time: 68759
note_on channel=0 note=82 velocity=0 time=0, total_time: 68759
note_on channel=0 note=72 velocity=87 time=121, total_time: 68880
note_on channel=0 note=72 velocity=0 time=119, total_time: 68999
note_on channel=0 note=72 velocity=87 time=121, total_time: 69120
note_on channel=0 note=77 velocity=87 time=0, total_time: 69120
note_on channel=0 note=81 velocity=87 time=0, total_time: 69120
note_on channel=0 note=72 velocity=0 time=911, total_time: 70031
note_on channel=0 note=77 velocity=0 time=0, total_time: 70031
note_on channel=0 note=81 velocity=0 time=0, total_time: 70031
note_on channel=0 note=69 velocity=87 time=529, total_time: 70560
note_on channel=0 note=77 velocity=87 time=0, total_time: 70560
note_on channel=0 note=69 velocity=0 time=119, total_time: 70679
note_on channel=0 note=77 velocity=0 time=0, total_time: 70679
note_on channel=0 note=70 velocity=87 time=121, total_time: 70800
note_on channel=0 note=79 velocity=87 time=0, total_time: 70800
note_on channel=0 note=70 velocity=0 time=119, total_time: 70919
note_on channel=0 note=79 velocity=0 time=0, total_time: 70919
note_on channel=0 note=72 velocity=87 time=121, total_time: 71040
note_on channel=0 note=81 velocity=87 time=0, total_time: 71040
note_on channel=0 note=72 velocity=0 time=119, total_time: 71159
note_on channel=0 note=81 velocity=0 time=0, total_time: 71159
note_on channel=0 note=72 velocity=87 time=1, total_time: 71160
note_on channel=0 note=72 velocity=0 time=113, total_time: 71273
note_on channel=0 note=74 velocity=87 time=7, total_time: 71280
note_on channel=0 note=74 velocity=0 time=113, total_time: 71393
note_on channel=0 note=72 velocity=87 time=7, total_time: 71400
note_on channel=0 note=72 velocity=0 time=113, total_time: 71513
note_on channel=0 note=84 velocity=87 time=7, total_time: 71520
note_on channel=0 note=84 velocity=0 time=59, total_time: 71579
note_on channel=0 note=72 velocity=87 time=61, total_time: 71640
note_on channel=0 note=72 velocity=0 time=113, total_time: 71753
note_on channel=0 note=81 velocity=87 time=7, total_time: 71760
note_on channel=0 note=81 velocity=0 time=59, total_time: 71819
note_on channel=0 note=72 velocity=87 time=61, total_time: 71880
note_on channel=0 note=72 velocity=0 time=113, total_time: 71993
note_on channel=0 note=79 velocity=87 time=7, total_time: 72000
note_on channel=0 note=79 velocity=0 time=119, total_time: 72119
note_on channel=0 note=72 velocity=87 time=1, total_time: 72120
note_on channel=0 note=72 velocity=0 time=113, total_time: 72233
note_on channel=0 note=74 velocity=87 time=7, total_time: 72240
note_on channel=0 note=74 velocity=0 time=113, total_time: 72353
note_on channel=0 note=72 velocity=87 time=7, total_time: 72360
note_on channel=0 note=72 velocity=0 time=113, total_time: 72473
note_on channel=0 note=84 velocity=87 time=7, total_time: 72480
note_on channel=0 note=84 velocity=0 time=59, total_time: 72539
note_on channel=0 note=72 velocity=87 time=61, total_time: 72600
note_on channel=0 note=72 velocity=0 time=113, total_time: 72713
note_on channel=0 note=79 velocity=87 time=7, total_time: 72720
note_on channel=0 note=79 velocity=0 time=59, total_time: 72779
note_on channel=0 note=72 velocity=87 time=61, total_time: 72840
note_on channel=0 note=72 velocity=0 time=113, total_time: 72953
note_on channel=0 note=69 velocity=87 time=7, total_time: 72960
note_on channel=0 note=77 velocity=87 time=0, total_time: 72960
note_on channel=0 note=69 velocity=0 time=455, total_time: 73415
note_on channel=0 note=77 velocity=0 time=0, total_time: 73415
note_on channel=0 note=81 velocity=87 time=25, total_time: 73440
note_on channel=0 note=89 velocity=87 time=0, total_time: 73440
note_on channel=0 note=81 velocity=0 time=455, total_time: 73895
note_on channel=0 note=89 velocity=0 time=0, total_time: 73895
note_on channel=0 note=79 velocity=87 time=25, total_time: 73920
note_on channel=0 note=88 velocity=87 time=0, total_time: 73920
note_on channel=0 note=79 velocity=0 time=455, total_time: 74375
note_on channel=0 note=88 velocity=0 time=0, total_time: 74375
note_on channel=0 note=86 velocity=87 time=265, total_time: 74640
note_on channel=0 note=86 velocity=0 time=113, total_time: 74753
note_on channel=0 note=84 velocity=87 time=7, total_time: 74760
note_on channel=0 note=84 velocity=0 time=113, total_time: 74873
note_on channel=0 note=77 velocity=87 time=7, total_time: 74880
note_on channel=0 note=82 velocity=87 time=0, total_time: 74880
note_on channel=0 note=86 velocity=87 time=0, total_time: 74880
note_on channel=0 note=77 velocity=0 time=455, total_time: 75335
note_on channel=0 note=82 velocity=0 time=0, total_time: 75335
note_on channel=0 note=86 velocity=0 time=0, total_time: 75335
note_on channel=0 note=74 velocity=87 time=25, total_time: 75360
note_on channel=0 note=82 velocity=87 time=0, total_time: 75360
note_on channel=0 note=74 velocity=0 time=455, total_time: 75815
note_on channel=0 note=82 velocity=0 time=0, total_time: 75815
note_on channel=0 note=67 velocity=87 time=25, total_time: 75840
note_on channel=0 note=76 velocity=87 time=0, total_time: 75840
note_on channel=0 note=67 velocity=0 time=455, total_time: 76295
note_on channel=0 note=76 velocity=0 time=0, total_time: 76295
note_on channel=0 note=70 velocity=87 time=25, total_time: 76320
note_on channel=0 note=79 velocity=87 time=0, total_time: 76320
note_on channel=0 note=70 velocity=0 time=455, total_time: 76775
note_on channel=0 note=79 velocity=0 time=0, total_time: 76775
note_on channel=0 note=69 velocity=87 time=25, total_time: 76800
note_on channel=0 note=72 velocity=87 time=0, total_time: 76800
note_on channel=0 note=77 velocity=87 time=0, total_time: 76800
note_on channel=0 note=69 velocity=0 time=911, total_time: 77711
note_on channel=0 note=72 velocity=0 time=0, total_time: 77711
note_on channel=0 note=77 velocity=0 time=0, total_time: 77711
note_on channel=0 note=65 velocity=87 time=529, total_time: 78240
note_on channel=0 note=65 velocity=0 time=227, total_time: 78467
note_on channel=0 note=64 velocity=87 time=13, total_time: 78480
note_on channel=0 note=64 velocity=0 time=227, total_time: 78707
note_on channel=0 note=62 velocity=87 time=13, total_time: 78720
note_on channel=0 note=62 velocity=0 time=119, total_time: 78839
note_on channel=0 note=62 velocity=87 time=121, total_time: 78960
note_on channel=0 note=62 velocity=0 time=113, total_time: 79073
note_on channel=0 note=64 velocity=87 time=7, total_time: 79080
note_on channel=0 note=64 velocity=0 time=113, total_time: 79193
note_on channel=0 note=65 velocity=87 time=7, total_time: 79200
note_on channel=0 note=65 velocity=0 time=119, total_time: 79319
note_on channel=0 note=62 velocity=87 time=121, total_time: 79440
note_on channel=0 note=62 velocity=0 time=119, total_time: 79559
note_on channel=0 note=64 velocity=87 time=121, total_time: 79680
note_on channel=0 note=64 velocity=0 time=119, total_time: 79799
note_on channel=0 note=62 velocity=87 time=121, total_time: 79920
note_on channel=0 note=62 velocity=0 time=119, total_time: 80039
note_on channel=0 note=60 velocity=87 time=121, total_time: 80160
note_on channel=0 note=60 velocity=0 time=455, total_time: 80615
note_on channel=0 note=58 velocity=87 time=25, total_time: 80640
note_on channel=0 note=58 velocity=0 time=119, total_time: 80759
note_on channel=0 note=58 velocity=87 time=121, total_time: 80880
note_on channel=0 note=58 velocity=0 time=113, total_time: 80993
note_on channel=0 note=60 velocity=87 time=7, total_time: 81000
note_on channel=0 note=60 velocity=0 time=113, total_time: 81113
note_on channel=0 note=62 velocity=87 time=7, total_time: 81120
note_on channel=0 note=62 velocity=0 time=119, total_time: 81239
note_on channel=0 note=58 velocity=87 time=121, total_time: 81360
note_on channel=0 note=58 velocity=0 time=119, total_time: 81479
note_on channel=0 note=60 velocity=87 time=121, total_time: 81600
note_on channel=0 note=60 velocity=0 time=119, total_time: 81719
note_on channel=0 note=58 velocity=87 time=121, total_time: 81840
note_on channel=0 note=58 velocity=0 time=119, total_time: 81959
note_on channel=0 note=57 velocity=87 time=121, total_time: 82080
note_on channel=0 note=57 velocity=0 time=455, total_time: 82535
note_on channel=0 note=55 velocity=87 time=25, total_time: 82560
note_on channel=0 note=55 velocity=0 time=119, total_time: 82679
note_on channel=0 note=55 velocity=87 time=121, total_time: 82800
note_on channel=0 note=55 velocity=0 time=113, total_time: 82913
note_on channel=0 note=57 velocity=87 time=7, total_time: 82920
note_on channel=0 note=57 velocity=0 time=113, total_time: 83033
note_on channel=0 note=58 velocity=87 time=7, total_time: 83040
note_on channel=0 note=58 velocity=0 time=119, total_time: 83159
note_on channel=0 note=55 velocity=87 time=121, total_time: 83280
note_on channel=0 note=55 velocity=0 time=119, total_time: 83399
note_on channel=0 note=57 velocity=87 time=121, total_time: 83520
note_on channel=0 note=57 velocity=0 time=119, total_time: 83639
note_on channel=0 note=55 velocity=87 time=121, total_time: 83760
note_on channel=0 note=55 velocity=0 time=119, total_time: 83879
note_on channel=0 note=53 velocity=87 time=121, total_time: 84000
note_on channel=0 note=53 velocity=0 time=119, total_time: 84119
note_on channel=0 note=65 velocity=87 time=121, total_time: 84240
note_on channel=0 note=65 velocity=0 time=119, total_time: 84359
note_on channel=0 note=55 velocity=87 time=121, total_time: 84480
note_on channel=0 note=64 velocity=87 time=0, total_time: 84480
note_on channel=0 note=55 velocity=0 time=119, total_time: 84599
note_on channel=0 note=64 velocity=0 time=0, total_time: 84599
note_on channel=0 note=55 velocity=87 time=121, total_time: 84720
note_on channel=0 note=64 velocity=87 time=0, total_time: 84720
note_on channel=0 note=55 velocity=0 time=119, total_time: 84839
note_on channel=0 note=64 velocity=0 time=0, total_time: 84839
note_on channel=0 note=58 velocity=87 time=121, total_time: 84960
note_on channel=0 note=62 velocity=87 time=0, total_time: 84960
note_on channel=0 note=58 velocity=0 time=119, total_time: 85079
note_on channel=0 note=62 velocity=0 time=0, total_time: 85079
note_on channel=0 note=58 velocity=87 time=121, total_time: 85200
note_on channel=0 note=62 velocity=87 time=0, total_time: 85200
note_on channel=0 note=58 velocity=0 time=119, total_time: 85319
note_on channel=0 note=62 velocity=0 time=0, total_time: 85319
note_on channel=0 note=57 velocity=87 time=121, total_time: 85440
note_on channel=0 note=61 velocity=87 time=0, total_time: 85440
note_on channel=0 note=57 velocity=0 time=119, total_time: 85559
note_on channel=0 note=61 velocity=0 time=0, total_time: 85559
note_on channel=0 note=59 velocity=87 time=121, total_time: 85680
note_on channel=0 note=62 velocity=87 time=0, total_time: 85680
note_on channel=0 note=59 velocity=0 time=119, total_time: 85799
note_on channel=0 note=62 velocity=0 time=0, total_time: 85799
note_on channel=0 note=61 velocity=87 time=121, total_time: 85920
note_on channel=0 note=64 velocity=87 time=0, total_time: 85920
note_on channel=0 note=61 velocity=0 time=455, total_time: 86375
note_on channel=0 note=64 velocity=0 time=0, total_time: 86375
note_on channel=0 note=62 velocity=87 time=25, total_time: 86400
note_on channel=0 note=62 velocity=0 time=119, total_time: 86519
note_on channel=0 note=62 velocity=87 time=121, total_time: 86640
note_on channel=0 note=62 velocity=0 time=113, total_time: 86753
note_on channel=0 note=64 velocity=87 time=7, total_time: 86760
note_on channel=0 note=64 velocity=0 time=113, total_time: 86873
note_on channel=0 note=65 velocity=87 time=7, total_time: 86880
note_on channel=0 note=65 velocity=0 time=119, total_time: 86999
note_on channel=0 note=62 velocity=87 time=121, total_time: 87120
note_on channel=0 note=62 velocity=0 time=119, total_time: 87239
note_on channel=0 note=60 velocity=87 time=121, total_time: 87360
note_on channel=0 note=60 velocity=0 time=119, total_time: 87479
note_on channel=0 note=62 velocity=87 time=121, total_time: 87600
note_on channel=0 note=62 velocity=0 time=119, total_time: 87719
note_on channel=0 note=64 velocity=87 time=121, total_time: 87840
note_on channel=0 note=64 velocity=0 time=455, total_time: 88295
note_on channel=0 note=58 velocity=87 time=25, total_time: 88320
note_on channel=0 note=58 velocity=0 time=119, total_time: 88439
note_on channel=0 note=58 velocity=87 time=121, total_time: 88560
note_on channel=0 note=58 velocity=0 time=113, total_time: 88673
note_on channel=0 note=60 velocity=87 time=7, total_time: 88680
note_on channel=0 note=60 velocity=0 time=113, total_time: 88793
note_on channel=0 note=62 velocity=87 time=7, total_time: 88800
note_on channel=0 note=62 velocity=0 time=119, total_time: 88919
note_on channel=0 note=58 velocity=87 time=121, total_time: 89040
note_on channel=0 note=58 velocity=0 time=119, total_time: 89159
note_on channel=0 note=57 velocity=87 time=121, total_time: 89280
note_on channel=0 note=57 velocity=0 time=119, total_time: 89399
note_on channel=0 note=58 velocity=87 time=121, total_time: 89520
note_on channel=0 note=58 velocity=0 time=119, total_time: 89639
note_on channel=0 note=60 velocity=87 time=121, total_time: 89760
note_on channel=0 note=60 velocity=0 time=455, total_time: 90215
note_on channel=0 note=55 velocity=87 time=25, total_time: 90240
note_on channel=0 note=55 velocity=0 time=119, total_time: 90359
note_on channel=0 note=55 velocity=87 time=121, total_time: 90480
note_on channel=0 note=55 velocity=0 time=113, total_time: 90593
note_on channel=0 note=57 velocity=87 time=7, total_time: 90600
note_on channel=0 note=57 velocity=0 time=113, total_time: 90713
note_on channel=0 note=58 velocity=87 time=7, total_time: 90720
note_on channel=0 note=58 velocity=0 time=119, total_time: 90839
note_on channel=0 note=62 velocity=87 time=121, total_time: 90960
note_on channel=0 note=62 velocity=0 time=119, total_time: 91079
note_on channel=0 note=57 velocity=87 time=121, total_time: 91200
note_on channel=0 note=57 velocity=0 time=119, total_time: 91319
note_on channel=0 note=60 velocity=87 time=121, total_time: 91440
note_on channel=0 note=60 velocity=0 time=119, total_time: 91559
note_on channel=0 note=65 velocity=87 time=121, total_time: 91680
note_on channel=0 note=65 velocity=0 time=119, total_time: 91799
note_on channel=0 note=69 velocity=87 time=121, total_time: 91920
note_on channel=0 note=69 velocity=0 time=119, total_time: 92039
note_on channel=0 note=67 velocity=87 time=121, total_time: 92160
note_on channel=0 note=70 velocity=87 time=0, total_time: 92160
note_on channel=0 note=67 velocity=0 time=119, total_time: 92279
note_on channel=0 note=70 velocity=0 time=0, total_time: 92279
note_on channel=0 note=65 velocity=87 time=121, total_time: 92400
note_on channel=0 note=69 velocity=87 time=0, total_time: 92400
note_on channel=0 note=65 velocity=0 time=119, total_time: 92519
note_on channel=0 note=69 velocity=0 time=0, total_time: 92519
note_on channel=0 note=64 velocity=87 time=121, total_time: 92640
note_on channel=0 note=67 velocity=87 time=0, total_time: 92640
note_on channel=0 note=64 velocity=0 time=119, total_time: 92759
note_on channel=0 note=67 velocity=0 time=0, total_time: 92759
note_on channel=0 note=62 velocity=87 time=121, total_time: 92880
note_on channel=0 note=65 velocity=87 time=0, total_time: 92880
note_on channel=0 note=62 velocity=0 time=119, total_time: 92999
note_on channel=0 note=65 velocity=0 time=0, total_time: 92999
note_on channel=0 note=60 velocity=87 time=121, total_time: 93120
note_on channel=0 note=64 velocity=87 time=0, total_time: 93120
note_on channel=0 note=60 velocity=0 time=119, total_time: 93239
note_on channel=0 note=64 velocity=0 time=0, total_time: 93239
note_on channel=0 note=62 velocity=87 time=121, total_time: 93360
note_on channel=0 note=65 velocity=87 time=0, total_time: 93360
note_on channel=0 note=62 velocity=0 time=119, total_time: 93479
note_on channel=0 note=65 velocity=0 time=0, total_time: 93479
note_on channel=0 note=64 velocity=87 time=121, total_time: 93600
note_on channel=0 note=67 velocity=87 time=0, total_time: 93600
note_on channel=0 note=83 velocity=87 time=240, total_time: 93840
note_on channel=0 note=84 velocity=87 time=0, total_time: 93840
note_on channel=0 note=64 velocity=0 time=107, total_time: 93947
note_on channel=0 note=67 velocity=0 time=0, total_time: 93947
note_on channel=0 note=83 velocity=0 time=12, total_time: 93959
note_on channel=0 note=84 velocity=0 time=0, total_time: 93959
note_on channel=0 note=88 velocity=87 time=121, total_time: 94080
note_on channel=0 note=91 velocity=87 time=13, total_time: 94093
note_on channel=0 note=96 velocity=87 time=13, total_time: 94106
note_on channel=0 note=91 velocity=0 time=212, total_time: 94318
note_on channel=0 note=96 velocity=0 time=0, total_time: 94318
note_on channel=0 note=88 velocity=0 time=1, total_time: 94319
note_on channel=0 note=77 velocity=87 time=1201, total_time: 95520
note_on channel=0 note=77 velocity=0 time=227, total_time: 95747
note_on channel=0 note=79 velocity=87 time=13, total_time: 95760
note_on channel=0 note=79 velocity=0 time=227, total_time: 95987
note_on channel=0 note=81 velocity=87 time=13, total_time: 96000
note_on channel=0 note=81 velocity=0 time=0, total_time: 96000
note_on channel=0 note=81 velocity=87 time=0, total_time: 96000
note_on channel=0 note=72 velocity=80 time=120, total_time: 96120
note_on channel=0 note=72 velocity=0 time=113, total_time: 96233
note_on channel=0 note=77 velocity=80 time=7, total_time: 96240
note_on channel=0 note=77 velocity=0 time=113, total_time: 96353
note_on channel=0 note=81 velocity=0 time=7, total_time: 96360
note_on channel=0 note=81 velocity=80 time=0, total_time: 96360
note_on channel=0 note=81 velocity=0 time=113, total_time: 96473
note_on channel=0 note=84 velocity=87 time=7, total_time: 96480
note_on channel=0 note=84 velocity=0 time=0, total_time: 96480
note_on channel=0 note=84 velocity=87 time=0, total_time: 96480
note_on channel=0 note=81 velocity=80 time=120, total_time: 96600
note_on channel=0 note=81 velocity=0 time=113, total_time: 96713
note_on channel=0 note=77 velocity=80 time=7, total_time: 96720
note_on channel=0 note=77 velocity=0 time=113, total_time: 96833
note_on channel=0 note=72 velocity=80 time=7, total_time: 96840
note_on channel=0 note=84 velocity=0 time=95, total_time: 96935
note_on channel=0 note=72 velocity=0 time=18, total_time: 96953
note_on channel=0 note=79 velocity=87 time=7, total_time: 96960
note_on channel=0 note=79 velocity=0 time=0, total_time: 96960
note_on channel=0 note=79 velocity=87 time=0, total_time: 96960
note_on channel=0 note=72 velocity=80 time=120, total_time: 97080
note_on channel=0 note=72 velocity=0 time=113, total_time: 97193
note_on channel=0 note=76 velocity=80 time=7, total_time: 97200
note_on channel=0 note=76 velocity=0 time=113, total_time: 97313
note_on channel=0 note=79 velocity=0 time=7, total_time: 97320
note_on channel=0 note=79 velocity=80 time=0, total_time: 97320
note_on channel=0 note=79 velocity=0 time=113, total_time: 97433
note_on channel=0 note=84 velocity=87 time=7, total_time: 97440
note_on channel=0 note=84 velocity=0 time=0, total_time: 97440
note_on channel=0 note=84 velocity=87 time=0, total_time: 97440
note_on channel=0 note=79 velocity=80 time=120, total_time: 97560
note_on channel=0 note=79 velocity=0 time=113, total_time: 97673
note_on channel=0 note=76 velocity=80 time=7, total_time: 97680
note_on channel=0 note=76 velocity=0 time=113, total_time: 97793
note_on channel=0 note=72 velocity=80 time=7, total_time: 97800
note_on channel=0 note=84 velocity=0 time=95, total_time: 97895
note_on channel=0 note=72 velocity=0 time=18, total_time: 97913
note_on channel=0 note=77 velocity=87 time=7, total_time: 97920
note_on channel=0 note=77 velocity=0 time=0, total_time: 97920
note_on channel=0 note=77 velocity=87 time=0, total_time: 97920
note_on channel=0 note=69 velocity=80 time=120, total_time: 98040
note_on channel=0 note=69 velocity=0 time=113, total_time: 98153
note_on channel=0 note=74 velocity=80 time=7, total_time: 98160
note_on channel=0 note=74 velocity=0 time=113, total_time: 98273
note_on channel=0 note=77 velocity=0 time=7, total_time: 98280
note_on channel=0 note=77 velocity=80 time=0, total_time: 98280
note_on channel=0 note=77 velocity=0 time=113, total_time: 98393
note_on channel=0 note=81 velocity=87 time=7, total_time: 98400
note_on channel=0 note=81 velocity=0 time=0, total_time: 98400
note_on channel=0 note=81 velocity=87 time=0, total_time: 98400
note_on channel=0 note=69 velocity=80 time=120, total_time: 98520
note_on channel=0 note=69 velocity=0 time=113, total_time: 98633
note_on channel=0 note=74 velocity=80 time=7, total_time: 98640
note_on channel=0 note=81 velocity=0 time=101, total_time: 98741
note_on channel=0 note=74 velocity=0 time=12, total_time: 98753
note_on channel=0 note=77 velocity=87 time=7, total_time: 98760
note_on channel=0 note=77 velocity=0 time=0, total_time: 98760
note_on channel=0 note=77 velocity=87 time=0, total_time: 98760
note_on channel=0 note=77 velocity=0 time=113, total_time: 98873
note_on channel=0 note=76 velocity=87 time=7, total_time: 98880
note_on channel=0 note=76 velocity=0 time=455, total_time: 99335
note_on channel=0 note=77 velocity=87 time=265, total_time: 99600
note_on channel=0 note=77 velocity=0 time=113, total_time: 99713
note_on channel=0 note=76 velocity=87 time=7, total_time: 99720
note_on channel=0 note=76 velocity=0 time=113, total_time: 99833
note_on channel=0 note=74 velocity=87 time=7, total_time: 99840
note_on channel=0 note=74 velocity=0 time=0, total_time: 99840
note_on channel=0 note=74 velocity=87 time=0, total_time: 99840
note_on channel=0 note=65 velocity=80 time=120, total_time: 99960
note_on channel=0 note=65 velocity=0 time=113, total_time: 100073
note_on channel=0 note=70 velocity=80 time=7, total_time: 100080
note_on channel=0 note=70 velocity=0 time=113, total_time: 100193
note_on channel=0 note=65 velocity=80 time=7, total_time: 100200
note_on channel=0 note=74 velocity=0 time=95, total_time: 100295
note_on channel=0 note=65 velocity=0 time=18, total_time: 100313
note_on channel=0 note=76 velocity=87 time=7, total_time: 100320
note_on channel=0 note=76 velocity=0 time=0, total_time: 100320
note_on channel=0 note=76 velocity=87 time=0, total_time: 100320
note_on channel=0 note=65 velocity=80 time=120, total_time: 100440
note_on channel=0 note=76 velocity=0 time=107, total_time: 100547
note_on channel=0 note=65 velocity=0 time=6, total_time: 100553
note_on channel=0 note=77 velocity=87 time=7, total_time: 100560
note_on channel=0 note=77 velocity=0 time=0, total_time: 100560
note_on channel=0 note=77 velocity=87 time=0, total_time: 100560
note_on channel=0 note=65 velocity=80 time=120, total_time: 100680
note_on channel=0 note=77 velocity=0 time=107, total_time: 100787
note_on channel=0 note=65 velocity=0 time=6, total_time: 100793
note_on channel=0 note=79 velocity=87 time=7, total_time: 100800
note_on channel=0 note=79 velocity=0 time=0, total_time: 100800
note_on channel=0 note=79 velocity=87 time=0, total_time: 100800
note_on channel=0 note=67 velocity=80 time=120, total_time: 100920
note_on channel=0 note=67 velocity=0 time=113, total_time: 101033
note_on channel=0 note=72 velocity=80 time=7, total_time: 101040
note_on channel=0 note=72 velocity=0 time=113, total_time: 101153
note_on channel=0 note=67 velocity=80 time=7, total_time: 101160
note_on channel=0 note=79 velocity=0 time=95, total_time: 101255
note_on channel=0 note=67 velocity=0 time=18, total_time: 101273
note_on channel=0 note=84 velocity=87 time=7, total_time: 101280
note_on channel=0 note=84 velocity=0 time=0, total_time: 101280
note_on channel=0 note=84 velocity=87 time=0, total_time: 101280
note_on channel=0 note=72 velocity=80 time=120, total_time: 101400
note_on channel=0 note=84 velocity=0 time=107, total_time: 101507
note_on channel=0 note=72 velocity=0 time=6, total_time: 101513
note_on channel=0 note=82 velocity=87 time=7, total_time: 101520
note_on channel=0 note=82 velocity=0 time=0, total_time: 101520
note_on channel=0 note=82 velocity=87 time=0, total_time: 101520
note_on channel=0 note=72 velocity=80 time=120, total_time: 101640
note_on channel=0 note=82 velocity=0 time=107, total_time: 101747
note_on channel=0 note=72 velocity=0 time=6, total_time: 101753
note_on channel=0 note=81 velocity=87 time=7, total_time: 101760
note_on channel=0 note=81 velocity=0 time=0, total_time: 101760
note_on channel=0 note=81 velocity=87 time=0, total_time: 101760
note_on channel=0 note=69 velocity=80 time=120, total_time: 101880
note_on channel=0 note=69 velocity=0 time=113, total_time: 101993
note_on channel=0 note=72 velocity=80 time=7, total_time: 102000
note_on channel=0 note=72 velocity=0 time=113, total_time: 102113
note_on channel=0 note=69 velocity=80 time=7, total_time: 102120
note_on channel=0 note=69 velocity=0 time=113, total_time: 102233
note_on channel=0 note=67 velocity=80 time=7, total_time: 102240
note_on channel=0 note=67 velocity=0 time=113, total_time: 102353
note_on channel=0 note=72 velocity=80 time=7, total_time: 102360
note_on channel=0 note=72 velocity=0 time=113, total_time: 102473
note_on channel=0 note=69 velocity=80 time=7, total_time: 102480
note_on channel=0 note=69 velocity=0 time=113, total_time: 102593
note_on channel=0 note=67 velocity=80 time=7, total_time: 102600
note_on channel=0 note=81 velocity=0 time=71, total_time: 102671
note_on channel=0 note=67 velocity=0 time=42, total_time: 102713
note_on channel=0 note=70 velocity=80 time=7, total_time: 102720
note_on channel=0 note=70 velocity=0 time=113, total_time: 102833
note_on channel=0 note=69 velocity=80 time=7, total_time: 102840
note_on channel=0 note=69 velocity=0 time=113, total_time: 102953
note_on channel=0 note=72 velocity=80 time=7, total_time: 102960
note_on channel=0 note=72 velocity=0 time=113, total_time: 103073
note_on channel=0 note=69 velocity=80 time=7, total_time: 103080
note_on channel=0 note=69 velocity=0 time=113, total_time: 103193
note_on channel=0 note=77 velocity=87 time=7, total_time: 103200
note_on channel=0 note=67 velocity=80 time=0, total_time: 103200
note_on channel=0 note=67 velocity=0 time=113, total_time: 103313
note_on channel=0 note=72 velocity=80 time=7, total_time: 103320
note_on channel=0 note=77 velocity=0 time=107, total_time: 103427
note_on channel=0 note=72 velocity=0 time=6, total_time: 103433
note_on channel=0 note=79 velocity=87 time=7, total_time: 103440
note_on channel=0 note=69 velocity=80 time=0, total_time: 103440
note_on channel=0 note=69 velocity=0 time=113, total_time: 103553
note_on channel=0 note=67 velocity=80 time=7, total_time: 103560
note_on channel=0 note=79 velocity=0 time=107, total_time: 103667
note_on channel=0 note=67 velocity=0 time=6, total_time: 103673
note_on channel=0 note=81 velocity=87 time=7, total_time: 103680
note_on channel=0 note=81 velocity=0 time=0, total_time: 103680
note_on channel=0 note=81 velocity=87 time=0, total_time: 103680
note_on channel=0 note=72 velocity=80 time=120, total_time: 103800
note_on channel=0 note=72 velocity=0 time=113, total_time: 103913
note_on channel=0 note=77 velocity=80 time=7, total_time: 103920
note_on channel=0 note=77 velocity=0 time=113, total_time: 104033
note_on channel=0 note=81 velocity=0 time=7, total_time: 104040
note_on channel=0 note=81 velocity=80 time=0, total_time: 104040
note_on channel=0 note=81 velocity=0 time=113, total_time: 104153
note_on channel=0 note=84 velocity=87 time=7, total_time: 104160
note_on channel=0 note=84 velocity=0 time=0, total_time: 104160
note_on channel=0 note=84 velocity=87 time=0, total_time: 104160
note_on channel=0 note=81 velocity=80 time=120, total_time: 104280
note_on channel=0 note=81 velocity=0 time=113, total_time: 104393
note_on channel=0 note=77 velocity=80 time=7, total_time: 104400
note_on channel=0 note=77 velocity=0 time=113, total_time: 104513
note_on channel=0 note=72 velocity=80 time=7, total_time: 104520
note_on channel=0 note=84 velocity=0 time=95, total_time: 104615
note_on channel=0 note=72 velocity=0 time=18, total_time: 104633
note_on channel=0 note=79 velocity=87 time=7, total_time: 104640
note_on channel=0 note=79 velocity=0 time=0, total_time: 104640
note_on channel=0 note=79 velocity=87 time=0, total_time: 104640
note_on channel=0 note=72 velocity=80 time=120, total_time: 104760
note_on channel=0 note=72 velocity=0 time=113, total_time: 104873
note_on channel=0 note=76 velocity=80 time=7, total_time: 104880
note_on channel=0 note=76 velocity=0 time=113, total_time: 104993
note_on channel=0 note=79 velocity=0 time=7, total_time: 105000
note_on channel=0 note=79 velocity=80 time=0, total_time: 105000
note_on channel=0 note=79 velocity=0 time=113, total_time: 105113
note_on channel=0 note=84 velocity=87 time=7, total_time: 105120
note_on channel=0 note=84 velocity=0 time=0, total_time: 105120
note_on channel=0 note=84 velocity=87 time=0, total_time: 105120
note_on channel=0 note=79 velocity=80 time=120, total_time: 105240
note_on channel=0 note=79 velocity=0 time=113, total_time: 105353
note_on channel=0 note=76 velocity=80 time=7, total_time: 105360
note_on channel=0 note=76 velocity=0 time=113, total_time: 105473
note_on channel=0 note=72 velocity=80 time=7, total_time: 105480
note_on channel=0 note=84 velocity=0 time=95, total_time: 105575
note_on channel=0 note=72 velocity=0 time=18, total_time: 105593
note_on channel=0 note=77 velocity=87 time=7, total_time: 105600
note_on channel=0 note=77 velocity=0 time=0, total_time: 105600
note_on channel=0 note=77 velocity=87 time=0, total_time: 105600
note_on channel=0 note=69 velocity=80 time=120, total_time: 105720
note_on channel=0 note=69 velocity=0 time=113, total_time: 105833
note_on channel=0 note=74 velocity=80 time=7, total_time: 105840
note_on channel=0 note=74 velocity=0 time=113, total_time: 105953
note_on channel=0 note=77 velocity=0 time=7, total_time: 105960
note_on channel=0 note=77 velocity=80 time=0, total_time: 105960
note_on channel=0 note=77 velocity=0 time=113, total_time: 106073
note_on channel=0 note=89 velocity=87 time=7, total_time: 106080
note_on channel=0 note=86 velocity=87 time=0, total_time: 106080
note_on channel=0 note=89 velocity=0 time=0, total_time: 106080
note_on channel=0 note=89 velocity=87 time=0, total_time: 106080
note_on channel=0 note=86 velocity=0 time=113, total_time: 106193
note_on channel=0 note=81 velocity=80 time=7, total_time: 106200
note_on channel=0 note=81 velocity=0 time=113, total_time: 106313
note_on channel=0 note=86 velocity=80 time=7, total_time: 106320
note_on channel=0 note=89 velocity=0 time=101, total_time: 106421
note_on channel=0 note=86 velocity=0 time=12, total_time: 106433
note_on channel=0 note=89 velocity=87 time=7, total_time: 106440
note_on channel=0 note=89 velocity=0 time=0, total_time: 106440
note_on channel=0 note=89 velocity=87 time=0, total_time: 106440
note_on channel=0 note=89 velocity=0 time=113, total_time: 106553
note_on channel=0 note=79 velocity=87 time=7, total_time: 106560
note_on channel=0 note=84 velocity=87 time=0, total_time: 106560
note_on channel=0 note=88 velocity=87 time=0, total_time: 106560
note_on channel=0 note=79 velocity=0 time=455, total_time: 107015
note_on channel=0 note=84 velocity=0 time=0, total_time: 107015
note_on channel=0 note=88 velocity=0 time=0, total_time: 107015
note_on channel=0 note=79 velocity=87 time=265, total_time: 107280
note_on channel=0 note=88 velocity=87 time=0, total_time: 107280
note_on channel=0 note=79 velocity=0 time=227, total_time: 107507
note_on channel=0 note=88 velocity=0 time=0, total_time: 107507
note_on channel=0 note=77 velocity=87 time=13, total_time: 107520
note_on channel=0 note=82 velocity=87 time=26, total_time: 107546
note_on channel=0 note=86 velocity=87 time=26, total_time: 107572
note_on channel=0 note=82 velocity=0 time=426, total_time: 107998
note_on channel=0 note=86 velocity=0 time=0, total_time: 107998
note_on channel=0 note=77 velocity=0 time=1, total_time: 107999
note_on channel=0 note=74 velocity=87 time=1, total_time: 108000
note_on channel=0 note=82 velocity=87 time=0, total_time: 108000
note_on channel=0 note=74 velocity=0 time=455, total_time: 108455
note_on channel=0 note=82 velocity=0 time=0, total_time: 108455
note_on channel=0 note=67 velocity=87 time=25, total_time: 108480
note_on channel=0 note=76 velocity=87 time=0, total_time: 108480
note_on channel=0 note=67 velocity=0 time=455, total_time: 108935
note_on channel=0 note=76 velocity=0 time=0, total_time: 108935
note_on channel=0 note=70 velocity=87 time=25, total_time: 108960
note_on channel=0 note=79 velocity=87 time=0, total_time: 108960
note_on channel=0 note=70 velocity=0 time=455, total_time: 109415
note_on channel=0 note=79 velocity=0 time=0, total_time: 109415
note_on channel=0 note=70 velocity=87 time=25, total_time: 109440
note_on channel=0 note=73 velocity=87 time=0, total_time: 109440
note_on channel=0 note=79 velocity=87 time=0, total_time: 109440
note_on channel=0 note=70 velocity=0 time=911, total_time: 110351
note_on channel=0 note=73 velocity=0 time=0, total_time: 110351
note_on channel=0 note=79 velocity=0 time=0, total_time: 110351
note_on channel=0 note=69 velocity=81 time=49, total_time: 110400
note_on channel=0 note=72 velocity=81 time=0, total_time: 110400
note_on channel=0 note=77 velocity=81 time=0, total_time: 110400
note_on channel=0 note=69 velocity=0 time=455, total_time: 110855
note_on channel=0 note=72 velocity=0 time=0, total_time: 110855
note_on channel=0 note=77 velocity=0 time=0, total_time: 110855
note_on channel=0 note=79 velocity=75 time=265, total_time: 111120
note_on channel=0 note=79 velocity=0 time=227, total_time: 111347
MetaMessage('time_signature', numerator=3, denominator=4, clocks_per_click=24, notated_32nd_notes_per_beat=8, time=13), total_time: 111360
note_on channel=0 note=81 velocity=75 time=0, total_time: 111360
note_on channel=0 note=81 velocity=0 time=113, total_time: 111473
note_on channel=0 note=80 velocity=75 time=7, total_time: 111480
note_on channel=0 note=80 velocity=0 time=113, total_time: 111593
note_on channel=0 note=81 velocity=75 time=7, total_time: 111600
note_on channel=0 note=81 velocity=0 time=119, total_time: 111719
note_on channel=0 note=84 velocity=75 time=121, total_time: 111840
note_on channel=0 note=84 velocity=0 time=119, total_time: 111959
note_on channel=0 note=79 velocity=75 time=121, total_time: 112080
note_on channel=0 note=79 velocity=0 time=113, total_time: 112193
note_on channel=0 note=78 velocity=75 time=7, total_time: 112200
note_on channel=0 note=78 velocity=0 time=113, total_time: 112313
note_on channel=0 note=79 velocity=75 time=7, total_time: 112320
note_on channel=0 note=79 velocity=0 time=119, total_time: 112439
note_on channel=0 note=84 velocity=75 time=121, total_time: 112560
note_on channel=0 note=84 velocity=0 time=119, total_time: 112679
note_on channel=0 note=77 velocity=75 time=121, total_time: 112800
note_on channel=0 note=77 velocity=0 time=455, total_time: 113255
note_on channel=0 note=77 velocity=75 time=745, total_time: 114000
note_on channel=0 note=77 velocity=0 time=113, total_time: 114113
note_on channel=0 note=76 velocity=75 time=7, total_time: 114120
note_on channel=0 note=76 velocity=0 time=113, total_time: 114233
note_on channel=0 note=74 velocity=75 time=7, total_time: 114240
note_on channel=0 note=74 velocity=0 time=113, total_time: 114353
note_on channel=0 note=73 velocity=75 time=7, total_time: 114360
note_on channel=0 note=73 velocity=0 time=113, total_time: 114473
note_on channel=0 note=74 velocity=75 time=7, total_time: 114480
note_on channel=0 note=74 velocity=0 time=119, total_time: 114599
note_on channel=0 note=77 velocity=75 time=121, total_time: 114720
note_on channel=0 note=77 velocity=0 time=119, total_time: 114839
note_on channel=0 note=79 velocity=75 time=121, total_time: 114960
note_on channel=0 note=79 velocity=0 time=113, total_time: 115073
note_on channel=0 note=78 velocity=75 time=7, total_time: 115080
note_on channel=0 note=78 velocity=0 time=113, total_time: 115193
note_on channel=0 note=79 velocity=75 time=7, total_time: 115200
note_on channel=0 note=79 velocity=0 time=119, total_time: 115319
note_on channel=0 note=84 velocity=75 time=121, total_time: 115440
note_on channel=0 note=84 velocity=0 time=119, total_time: 115559
note_on channel=0 note=81 velocity=75 time=121, total_time: 115680
note_on channel=0 note=81 velocity=0 time=455, total_time: 116135
note_on channel=0 note=77 velocity=75 time=745, total_time: 116880
note_on channel=0 note=77 velocity=0 time=113, total_time: 116993
note_on channel=0 note=79 velocity=75 time=7, total_time: 117000
note_on channel=0 note=79 velocity=0 time=113, total_time: 117113
note_on channel=0 note=81 velocity=75 time=7, total_time: 117120
note_on channel=0 note=81 velocity=0 time=113, total_time: 117233
note_on channel=0 note=80 velocity=75 time=7, total_time: 117240
note_on channel=0 note=80 velocity=0 time=113, total_time: 117353
note_on channel=0 note=81 velocity=75 time=7, total_time: 117360
note_on channel=0 note=81 velocity=0 time=119, total_time: 117479
note_on channel=0 note=84 velocity=75 time=121, total_time: 117600
note_on channel=0 note=84 velocity=0 time=119, total_time: 117719
note_on channel=0 note=79 velocity=75 time=121, total_time: 117840
note_on channel=0 note=79 velocity=0 time=113, total_time: 117953
note_on channel=0 note=78 velocity=75 time=7, total_time: 117960
note_on channel=0 note=78 velocity=0 time=113, total_time: 118073
note_on channel=0 note=79 velocity=75 time=7, total_time: 118080
note_on channel=0 note=79 velocity=0 time=119, total_time: 118199
note_on channel=0 note=84 velocity=75 time=121, total_time: 118320
note_on channel=0 note=84 velocity=0 time=119, total_time: 118439
note_on channel=0 note=77 velocity=75 time=121, total_time: 118560
note_on channel=0 note=77 velocity=0 time=455, total_time: 119015
note_on channel=0 note=77 velocity=75 time=745, total_time: 119760
note_on channel=0 note=77 velocity=0 time=113, total_time: 119873
note_on channel=0 note=76 velocity=75 time=7, total_time: 119880
note_on channel=0 note=76 velocity=0 time=113, total_time: 119993
note_on channel=0 note=73 velocity=75 time=7, total_time: 120000
note_on channel=0 note=73 velocity=0 time=113, total_time: 120113
note_on channel=0 note=74 velocity=75 time=7, total_time: 120120
note_on channel=0 note=74 velocity=0 time=113, total_time: 120233
note_on channel=0 note=77 velocity=75 time=7, total_time: 120240
note_on channel=0 note=77 velocity=0 time=119, total_time: 120359
note_on channel=0 note=81 velocity=75 time=121, total_time: 120480
note_on channel=0 note=81 velocity=0 time=119, total_time: 120599
note_on channel=0 note=77 velocity=75 time=121, total_time: 120720
note_on channel=0 note=77 velocity=0 time=113, total_time: 120833
note_on channel=0 note=78 velocity=75 time=7, total_time: 120840
note_on channel=0 note=78 velocity=0 time=113, total_time: 120953
note_on channel=0 note=79 velocity=75 time=7, total_time: 120960
note_on channel=0 note=79 velocity=0 time=119, total_time: 121079
note_on channel=0 note=84 velocity=75 time=121, total_time: 121200
note_on channel=0 note=84 velocity=0 time=119, total_time: 121319
note_on channel=0 note=77 velocity=75 time=121, total_time: 121440
note_on channel=0 note=77 velocity=0 time=455, total_time: 121895
MetaMessage('set_tempo', tempo=600000, time=745), total_time: 122640
note_on channel=0 note=89 velocity=75 time=0, total_time: 122640
note_on channel=0 note=89 velocity=0 time=113, total_time: 122753
MetaMessage('set_tempo', tempo=605449, time=7), total_time: 122760
note_on channel=0 note=91 velocity=75 time=0, total_time: 122760
note_on channel=0 note=91 velocity=0 time=113, total_time: 122873
MetaMessage('set_tempo', tempo=610998, time=7), total_time: 122880
note_on channel=0 note=84 velocity=75 time=0, total_time: 122880
note_on channel=0 note=89 velocity=75 time=25, total_time: 122905
note_on channel=0 note=93 velocity=75 time=26, total_time: 122931
MetaMessage('set_tempo', tempo=622407, time=189), total_time: 123120
note_on channel=0 note=89 velocity=0 time=238, total_time: 123358
note_on channel=0 note=93 velocity=0 time=0, total_time: 123358
note_on channel=0 note=84 velocity=0 time=1, total_time: 123359
MetaMessage('set_tempo', tempo=634921, time=1), total_time: 123360
note_on channel=0 note=96 velocity=75 time=0, total_time: 123360
note_on channel=0 note=96 velocity=0 time=227, total_time: 123587
MetaMessage('set_tempo', tempo=647249, time=13), total_time: 123600
note_on channel=0 note=84 velocity=75 time=0, total_time: 123600
note_on channel=0 note=88 velocity=75 time=24, total_time: 123624
note_on channel=0 note=91 velocity=75 time=24, total_time: 123648
MetaMessage('set_tempo', tempo=660066, time=192), total_time: 123840
note_on channel=0 note=88 velocity=0 time=238, total_time: 124078
note_on channel=0 note=91 velocity=0 time=0, total_time: 124078
note_on channel=0 note=84 velocity=0 time=1, total_time: 124079
MetaMessage('set_tempo', tempo=673401, time=1), total_time: 124080
note_on channel=0 note=96 velocity=75 time=0, total_time: 124080
note_on channel=0 note=96 velocity=0 time=227, total_time: 124307
MetaMessage('set_tempo', tempo=687285, time=13), total_time: 124320
note_on channel=0 note=81 velocity=75 time=0, total_time: 124320
note_on channel=0 note=86 velocity=75 time=23, total_time: 124343
note_on channel=0 note=89 velocity=75 time=23, total_time: 124366
MetaMessage('set_tempo', tempo=701754, time=194), total_time: 124560
note_on channel=0 note=86 velocity=0 time=238, total_time: 124798
note_on channel=0 note=89 velocity=0 time=0, total_time: 124798
note_on channel=0 note=81 velocity=0 time=1, total_time: 124799
MetaMessage('set_tempo', tempo=717703, time=1), total_time: 124800
note_on channel=0 note=93 velocity=75 time=0, total_time: 124800
note_on channel=0 note=93 velocity=0 time=227, total_time: 125027
MetaMessage('set_tempo', tempo=733496, time=13), total_time: 125040
note_on channel=0 note=79 velocity=75 time=0, total_time: 125040
note_on channel=0 note=84 velocity=75 time=21, total_time: 125061
note_on channel=0 note=88 velocity=75 time=22, total_time: 125083
MetaMessage('set_tempo', tempo=750000, time=197), total_time: 125280
note_on channel=0 note=84 velocity=0 time=238, total_time: 125518
note_on channel=0 note=88 velocity=0 time=0, total_time: 125518
note_on channel=0 note=79 velocity=0 time=1, total_time: 125519
MetaMessage('set_tempo', tempo=767263, time=1), total_time: 125520
note_on channel=0 note=84 velocity=75 time=0, total_time: 125520
note_on channel=0 note=84 velocity=0 time=227, total_time: 125747
MetaMessage('set_tempo', tempo=785340, time=13), total_time: 125760
note_on channel=0 note=77 velocity=75 time=0, total_time: 125760
note_on channel=0 note=82 velocity=75 time=20, total_time: 125780
note_on channel=0 note=86 velocity=75 time=20, total_time: 125800
MetaMessage('set_tempo', tempo=805369, time=200), total_time: 126000
note_on channel=0 note=82 velocity=0 time=238, total_time: 126238
note_on channel=0 note=86 velocity=0 time=0, total_time: 126238
note_on channel=0 note=77 velocity=0 time=1, total_time: 126239
MetaMessage('set_tempo', tempo=825309, time=1), total_time: 126240
note_on channel=0 note=91 velocity=75 time=0, total_time: 126240
note_on channel=0 note=91 velocity=0 time=227, total_time: 126467
MetaMessage('set_tempo', tempo=846262, time=13), total_time: 126480
note_on channel=0 note=79 velocity=75 time=0, total_time: 126480
note_on channel=0 note=84 velocity=75 time=18, total_time: 126498
note_on channel=0 note=89 velocity=75 time=19, total_time: 126517
MetaMessage('set_tempo', tempo=868307, time=203), total_time: 126720
note_on channel=0 note=79 velocity=0 time=0, total_time: 126720
note_on channel=0 note=84 velocity=0 time=238, total_time: 126958
note_on channel=0 note=89 velocity=0 time=0, total_time: 126958
MetaMessage('set_tempo', tempo=891530, time=2), total_time: 126960
note_on channel=0 note=88 velocity=75 time=0, total_time: 126960
note_on channel=0 note=88 velocity=0 time=227, total_time: 127187
MetaMessage('set_tempo', tempo=916031, time=13), total_time: 127200
note_on channel=0 note=77 velocity=75 time=0, total_time: 127200
note_on channel=0 note=81 velocity=75 time=17, total_time: 127217
note_on channel=0 note=84 velocity=75 time=17, total_time: 127234
note_on channel=0 note=89 velocity=75 time=17, total_time: 127251
MetaMessage('set_tempo', tempo=943396, time=189), total_time: 127440
MetaMessage('set_tempo', tempo=970874, time=240), total_time: 127680
note_on channel=0 note=81 velocity=0 time=238, total_time: 127918
note_on channel=0 note=84 velocity=0 time=0, total_time: 127918
note_on channel=0 note=89 velocity=0 time=0, total_time: 127918
note_on channel=0 note=77 velocity=0 time=1, total_time: 127919
MetaMessage('set_tempo', tempo=1000000, time=1), total_time: 127920
note_on channel=0 note=89 velocity=75 time=0, total_time: 127920
note_on channel=0 note=93 velocity=75 time=15, total_time: 127935
note_on channel=0 note=96 velocity=75 time=16, total_time: 127951
note_on channel=0 note=101 velocity=75 time=16, total_time: 127967
note_on channel=0 note=93 velocity=0 time=671, total_time: 128638
note_on channel=0 note=96 velocity=0 time=0, total_time: 128638
note_on channel=0 note=101 velocity=0 time=0, total_time: 128638
note_on channel=0 note=89 velocity=0 time=1, total_time: 128639
MetaMessage('end_of_track', time=1), total_time: 128640

Track 1:
MetaMessage('track_name', name='Piano\x00', time=0), total_time: 0
MetaMessage('key_signature', key='F', time=0), total_time: 0
MetaMessage('midi_port', port=0, time=0), total_time: 0
note_on channel=0 note=53 velocity=87 time=1920, total_time: 1920
control_change channel=0 control=64 value=127 time=2, total_time: 1922
note_on channel=0 note=53 velocity=0 time=225, total_time: 2147
note_on channel=0 note=60 velocity=87 time=13, total_time: 2160
note_on channel=0 note=60 velocity=0 time=455, total_time: 2615
note_on channel=0 note=60 velocity=87 time=25, total_time: 2640
note_on channel=0 note=60 velocity=0 time=159, total_time: 2799
note_on channel=0 note=52 velocity=87 time=81, total_time: 2880
control_change channel=0 control=64 value=0 time=1, total_time: 2881
control_change channel=0 control=64 value=127 time=1, total_time: 2882
note_on channel=0 note=52 velocity=0 time=225, total_time: 3107
note_on channel=0 note=60 velocity=87 time=13, total_time: 3120
note_on channel=0 note=60 velocity=0 time=455, total_time: 3575
note_on channel=0 note=60 velocity=87 time=25, total_time: 3600
note_on channel=0 note=60 velocity=0 time=159, total_time: 3759
note_on channel=0 note=50 velocity=87 time=81, total_time: 3840
control_change channel=0 control=64 value=0 time=1, total_time: 3841
control_change channel=0 control=64 value=127 time=1, total_time: 3842
note_on channel=0 note=50 velocity=0 time=225, total_time: 4067
note_on channel=0 note=57 velocity=87 time=13, total_time: 4080
note_on channel=0 note=57 velocity=0 time=455, total_time: 4535
note_on channel=0 note=57 velocity=87 time=25, total_time: 4560
note_on channel=0 note=57 velocity=0 time=159, total_time: 4719
note_on channel=0 note=48 velocity=87 time=81, total_time: 4800
control_change channel=0 control=64 value=0 time=1, total_time: 4801
control_change channel=0 control=64 value=127 time=1, total_time: 4802
note_on channel=0 note=48 velocity=0 time=225, total_time: 5027
note_on channel=0 note=57 velocity=87 time=13, total_time: 5040
note_on channel=0 note=57 velocity=0 time=455, total_time: 5495
note_on channel=0 note=57 velocity=87 time=25, total_time: 5520
note_on channel=0 note=57 velocity=0 time=159, total_time: 5679
note_on channel=0 note=46 velocity=87 time=81, total_time: 5760
control_change channel=0 control=64 value=0 time=1, total_time: 5761
control_change channel=0 control=64 value=127 time=1, total_time: 5762
note_on channel=0 note=46 velocity=0 time=225, total_time: 5987
note_on channel=0 note=53 velocity=87 time=13, total_time: 6000
note_on channel=0 note=53 velocity=0 time=455, total_time: 6455
note_on channel=0 note=53 velocity=87 time=25, total_time: 6480
note_on channel=0 note=53 velocity=0 time=159, total_time: 6639
note_on channel=0 note=48 velocity=87 time=81, total_time: 6720
control_change channel=0 control=64 value=0 time=1, total_time: 6721
control_change channel=0 control=64 value=127 time=1, total_time: 6722
note_on channel=0 note=48 velocity=0 time=225, total_time: 6947
note_on channel=0 note=55 velocity=87 time=13, total_time: 6960
note_on channel=0 note=55 velocity=0 time=455, total_time: 7415
note_on channel=0 note=55 velocity=87 time=25, total_time: 7440
note_on channel=0 note=55 velocity=0 time=159, total_time: 7599
note_on channel=0 note=53 velocity=87 time=81, total_time: 7680
control_change channel=0 control=64 value=0 time=1, total_time: 7681
control_change channel=0 control=64 value=127 time=1, total_time: 7682
note_on channel=0 note=53 velocity=0 time=225, total_time: 7907
note_on channel=0 note=60 velocity=87 time=13, total_time: 7920
note_on channel=0 note=60 velocity=0 time=455, total_time: 8375
note_on channel=0 note=60 velocity=87 time=25, total_time: 8400
note_on channel=0 note=60 velocity=0 time=159, total_time: 8559
note_on channel=0 note=53 velocity=87 time=81, total_time: 8640
control_change channel=0 control=64 value=0 time=1, total_time: 8641
control_change channel=0 control=64 value=127 time=1, total_time: 8642
note_on channel=0 note=53 velocity=0 time=225, total_time: 8867
note_on channel=0 note=60 velocity=87 time=13, total_time: 8880
note_on channel=0 note=60 velocity=0 time=455, total_time: 9335
note_on channel=0 note=60 velocity=87 time=25, total_time: 9360
note_on channel=0 note=60 velocity=0 time=159, total_time: 9519
note_on channel=0 note=53 velocity=87 time=81, total_time: 9600
control_change channel=0 control=64 value=0 time=1, total_time: 9601
control_change channel=0 control=64 value=127 time=1, total_time: 9602
note_on channel=0 note=53 velocity=0 time=225, total_time: 9827
note_on channel=0 note=60 velocity=87 time=13, total_time: 9840
note_on channel=0 note=60 velocity=0 time=455, total_time: 10295
note_on channel=0 note=60 velocity=87 time=25, total_time: 10320
note_on channel=0 note=60 velocity=0 time=159, total_time: 10479
note_on channel=0 note=52 velocity=87 time=81, total_time: 10560
control_change channel=0 control=64 value=0 time=1, total_time: 10561
control_change channel=0 control=64 value=127 time=1, total_time: 10562
note_on channel=0 note=52 velocity=0 time=225, total_time: 10787
note_on channel=0 note=60 velocity=87 time=13, total_time: 10800
note_on channel=0 note=60 velocity=0 time=455, total_time: 11255
note_on channel=0 note=60 velocity=87 time=25, total_time: 11280
note_on channel=0 note=60 velocity=0 time=159, total_time: 11439
note_on channel=0 note=50 velocity=87 time=81, total_time: 11520
control_change channel=0 control=64 value=0 time=1, total_time: 11521
control_change channel=0 control=64 value=127 time=1, total_time: 11522
note_on channel=0 note=50 velocity=0 time=225, total_time: 11747
note_on channel=0 note=57 velocity=87 time=13, total_time: 11760
note_on channel=0 note=57 velocity=0 time=455, total_time: 12215
note_on channel=0 note=57 velocity=87 time=25, total_time: 12240
note_on channel=0 note=57 velocity=0 time=159, total_time: 12399
note_on channel=0 note=48 velocity=87 time=81, total_time: 12480
control_change channel=0 control=64 value=0 time=1, total_time: 12481
control_change channel=0 control=64 value=127 time=1, total_time: 12482
note_on channel=0 note=48 velocity=0 time=225, total_time: 12707
note_on channel=0 note=57 velocity=87 time=13, total_time: 12720
note_on channel=0 note=57 velocity=0 time=455, total_time: 13175
note_on channel=0 note=57 velocity=87 time=25, total_time: 13200
note_on channel=0 note=57 velocity=0 time=159, total_time: 13359
note_on channel=0 note=46 velocity=87 time=81, total_time: 13440
control_change channel=0 control=64 value=0 time=1, total_time: 13441
control_change channel=0 control=64 value=127 time=1, total_time: 13442
note_on channel=0 note=46 velocity=0 time=225, total_time: 13667
note_on channel=0 note=53 velocity=87 time=13, total_time: 13680
note_on channel=0 note=53 velocity=0 time=455, total_time: 14135
note_on channel=0 note=53 velocity=87 time=25, total_time: 14160
note_on channel=0 note=53 velocity=0 time=159, total_time: 14319
note_on channel=0 note=48 velocity=87 time=81, total_time: 14400
control_change channel=0 control=64 value=0 time=1, total_time: 14401
control_change channel=0 control=64 value=127 time=1, total_time: 14402
note_on channel=0 note=48 velocity=0 time=225, total_time: 14627
note_on channel=0 note=55 velocity=87 time=13, total_time: 14640
note_on channel=0 note=55 velocity=0 time=455, total_time: 15095
note_on channel=0 note=55 velocity=87 time=25, total_time: 15120
note_on channel=0 note=55 velocity=0 time=159, total_time: 15279
note_on channel=0 note=50 velocity=87 time=81, total_time: 15360
control_change channel=0 control=64 value=0 time=1, total_time: 15361
control_change channel=0 control=64 value=127 time=1, total_time: 15362
note_on channel=0 note=50 velocity=0 time=225, total_time: 15587
note_on channel=0 note=57 velocity=87 time=13, total_time: 15600
note_on channel=0 note=57 velocity=0 time=455, total_time: 16055
note_on channel=0 note=57 velocity=87 time=25, total_time: 16080
note_on channel=0 note=57 velocity=0 time=159, total_time: 16239
note_on channel=0 note=50 velocity=87 time=81, total_time: 16320
control_change channel=0 control=64 value=0 time=1, total_time: 16321
control_change channel=0 control=64 value=127 time=1, total_time: 16322
note_on channel=0 note=50 velocity=0 time=453, total_time: 16775
control_change channel=0 control=64 value=0 time=26, total_time: 16801
note_on channel=0 note=53 velocity=87 time=479, total_time: 17280
control_change channel=0 control=64 value=127 time=2, total_time: 17282
note_on channel=0 note=53 velocity=0 time=225, total_time: 17507
note_on channel=0 note=60 velocity=87 time=13, total_time: 17520
note_on channel=0 note=60 velocity=0 time=227, total_time: 17747
note_on channel=0 note=65 velocity=87 time=13, total_time: 17760
note_on channel=0 note=65 velocity=0 time=455, total_time: 18215
note_on channel=0 note=52 velocity=87 time=25, total_time: 18240
control_change channel=0 control=64 value=0 time=1, total_time: 18241
control_change channel=0 control=64 value=127 time=1, total_time: 18242
note_on channel=0 note=52 velocity=0 time=225, total_time: 18467
note_on channel=0 note=60 velocity=87 time=13, total_time: 18480
note_on channel=0 note=60 velocity=0 time=227, total_time: 18707
note_on channel=0 note=64 velocity=87 time=13, total_time: 18720
note_on channel=0 note=64 velocity=0 time=455, total_time: 19175
note_on channel=0 note=50 velocity=87 time=25, total_time: 19200
control_change channel=0 control=64 value=0 time=1, total_time: 19201
control_change channel=0 control=64 value=127 time=1, total_time: 19202
note_on channel=0 note=50 velocity=0 time=225, total_time: 19427
note_on channel=0 note=53 velocity=87 time=13, total_time: 19440
note_on channel=0 note=53 velocity=0 time=227, total_time: 19667
note_on channel=0 note=57 velocity=87 time=13, total_time: 19680
note_on channel=0 note=57 velocity=0 time=227, total_time: 19907
note_on channel=0 note=53 velocity=87 time=13, total_time: 19920
note_on channel=0 note=53 velocity=0 time=227, total_time: 20147
note_on channel=0 note=62 velocity=87 time=13, total_time: 20160
control_change channel=0 control=64 value=0 time=1, total_time: 20161
control_change channel=0 control=64 value=127 time=1, total_time: 20162
note_on channel=0 note=62 velocity=0 time=453, total_time: 20615
control_change channel=0 control=64 value=0 time=26, total_time: 20641
note_on channel=0 note=46 velocity=87 time=479, total_time: 21120
control_change channel=0 control=64 value=127 time=2, total_time: 21122
note_on channel=0 note=46 velocity=0 time=225, total_time: 21347
note_on channel=0 note=53 velocity=87 time=13, total_time: 21360
note_on channel=0 note=53 velocity=0 time=227, total_time: 21587
note_on channel=0 note=58 velocity=87 time=13, total_time: 21600
note_on channel=0 note=58 velocity=0 time=455, total_time: 22055
note_on channel=0 note=48 velocity=87 time=25, total_time: 22080
control_change channel=0 control=64 value=0 time=1, total_time: 22081
control_change channel=0 control=64 value=127 time=1, total_time: 22082
note_on channel=0 note=48 velocity=0 time=225, total_time: 22307
note_on channel=0 note=55 velocity=87 time=13, total_time: 22320
note_on channel=0 note=55 velocity=0 time=227, total_time: 22547
note_on channel=0 note=60 velocity=87 time=13, total_time: 22560
note_on channel=0 note=60 velocity=0 time=455, total_time: 23015
note_on channel=0 note=53 velocity=87 time=25, total_time: 23040
control_change channel=0 control=64 value=0 time=1, total_time: 23041
control_change channel=0 control=64 value=127 time=1, total_time: 23042
note_on channel=0 note=53 velocity=0 time=225, total_time: 23267
note_on channel=0 note=57 velocity=87 time=13, total_time: 23280
note_on channel=0 note=57 velocity=0 time=227, total_time: 23507
note_on channel=0 note=60 velocity=87 time=13, total_time: 23520
note_on channel=0 note=57 velocity=87 time=240, total_time: 23760
note_on channel=0 note=60 velocity=0 time=191, total_time: 23951
note_on channel=0 note=57 velocity=0 time=36, total_time: 23987
note_on channel=0 note=65 velocity=87 time=13, total_time: 24000
control_change channel=0 control=64 value=0 time=1, total_time: 24001
control_change channel=0 control=64 value=127 time=1, total_time: 24002
note_on channel=0 note=65 velocity=0 time=225, total_time: 24227
note_on channel=0 note=60 velocity=87 time=13, total_time: 24240
note_on channel=0 note=60 velocity=0 time=227, total_time: 24467
note_on channel=0 note=57 velocity=87 time=13, total_time: 24480
note_on channel=0 note=57 velocity=0 time=227, total_time: 24707
note_on channel=0 note=60 velocity=87 time=13, total_time: 24720
note_on channel=0 note=60 velocity=0 time=227, total_time: 24947
note_on channel=0 note=53 velocity=87 time=13, total_time: 24960
control_change channel=0 control=64 value=0 time=1, total_time: 24961
control_change channel=0 control=64 value=127 time=1, total_time: 24962
note_on channel=0 note=53 velocity=0 time=225, total_time: 25187
note_on channel=0 note=60 velocity=87 time=13, total_time: 25200
note_on channel=0 note=60 velocity=0 time=227, total_time: 25427
note_on channel=0 note=65 velocity=87 time=13, total_time: 25440
note_on channel=0 note=65 velocity=0 time=227, total_time: 25667
note_on channel=0 note=60 velocity=87 time=13, total_time: 25680
note_on channel=0 note=60 velocity=0 time=227, total_time: 25907
note_on channel=0 note=52 velocity=87 time=13, total_time: 25920
control_change channel=0 control=64 value=0 time=1, total_time: 25921
control_change channel=0 control=64 value=127 time=1, total_time: 25922
note_on channel=0 note=52 velocity=0 time=225, total_time: 26147
note_on channel=0 note=55 velocity=87 time=13, total_time: 26160
note_on channel=0 note=55 velocity=0 time=227, total_time: 26387
note_on channel=0 note=60 velocity=87 time=13, total_time: 26400
note_on channel=0 note=60 velocity=0 time=227, total_time: 26627
note_on channel=0 note=52 velocity=87 time=13, total_time: 26640
note_on channel=0 note=52 velocity=0 time=227, total_time: 26867
note_on channel=0 note=50 velocity=87 time=13, total_time: 26880
control_change channel=0 control=64 value=0 time=1, total_time: 26881
control_change channel=0 control=64 value=127 time=1, total_time: 26882
note_on channel=0 note=50 velocity=0 time=225, total_time: 27107
note_on channel=0 note=57 velocity=87 time=13, total_time: 27120
note_on channel=0 note=62 velocity=87 time=240, total_time: 27360
note_on channel=0 note=62 velocity=0 time=227, total_time: 27587
note_on channel=0 note=57 velocity=0 time=13, total_time: 27600
note_on channel=0 note=57 velocity=87 time=0, total_time: 27600
note_on channel=0 note=57 velocity=0 time=227, total_time: 27827
note_on channel=0 note=65 velocity=87 time=13, total_time: 27840
control_change channel=0 control=64 value=0 time=1, total_time: 27841
control_change channel=0 control=64 value=127 time=1, total_time: 27842
note_on channel=0 note=65 velocity=0 time=225, total_time: 28067
note_on channel=0 note=57 velocity=87 time=13, total_time: 28080
note_on channel=0 note=57 velocity=0 time=227, total_time: 28307
note_on channel=0 note=62 velocity=87 time=13, total_time: 28320
note_on channel=0 note=62 velocity=0 time=227, total_time: 28547
note_on channel=0 note=57 velocity=87 time=13, total_time: 28560
note_on channel=0 note=57 velocity=0 time=227, total_time: 28787
note_on channel=0 note=46 velocity=87 time=13, total_time: 28800
control_change channel=0 control=64 value=0 time=1, total_time: 28801
control_change channel=0 control=64 value=127 time=1, total_time: 28802
note_on channel=0 note=46 velocity=0 time=225, total_time: 29027
note_on channel=0 note=53 velocity=87 time=13, total_time: 29040
note_on channel=0 note=53 velocity=0 time=227, total_time: 29267
note_on channel=0 note=62 velocity=87 time=13, total_time: 29280
note_on channel=0 note=62 velocity=0 time=227, total_time: 29507
note_on channel=0 note=58 velocity=87 time=13, total_time: 29520
note_on channel=0 note=58 velocity=0 time=227, total_time: 29747
note_on channel=0 note=48 velocity=87 time=13, total_time: 29760
control_change channel=0 control=64 value=0 time=1, total_time: 29761
control_change channel=0 control=64 value=127 time=1, total_time: 29762
note_on channel=0 note=48 velocity=0 time=225, total_time: 29987
note_on channel=0 note=52 velocity=87 time=13, total_time: 30000
note_on channel=0 note=52 velocity=0 time=227, total_time: 30227
note_on channel=0 note=55 velocity=87 time=13, total_time: 30240
note_on channel=0 note=55 velocity=0 time=227, total_time: 30467
note_on channel=0 note=52 velocity=87 time=13, total_time: 30480
note_on channel=0 note=52 velocity=0 time=227, total_time: 30707
note_on channel=0 note=50 velocity=87 time=13, total_time: 30720
control_change channel=0 control=64 value=0 time=1, total_time: 30721
control_change channel=0 control=64 value=127 time=1, total_time: 30722
note_on channel=0 note=50 velocity=0 time=225, total_time: 30947
note_on channel=0 note=57 velocity=87 time=13, total_time: 30960
note_on channel=0 note=57 velocity=0 time=227, total_time: 31187
note_on channel=0 note=55 velocity=87 time=13, total_time: 31200
note_on channel=0 note=55 velocity=0 time=227, total_time: 31427
note_on channel=0 note=57 velocity=87 time=13, total_time: 31440
note_on channel=0 note=57 velocity=0 time=227, total_time: 31667
note_on channel=0 note=50 velocity=87 time=13, total_time: 31680
control_change channel=0 control=64 value=0 time=1, total_time: 31681
control_change channel=0 control=64 value=127 time=1, total_time: 31682
note_on channel=0 note=50 velocity=0 time=453, total_time: 32135
control_change channel=0 control=64 value=0 time=26, total_time: 32161
note_on channel=0 note=46 velocity=87 time=479, total_time: 32640
control_change channel=0 control=64 value=127 time=2, total_time: 32642
note_on channel=0 note=46 velocity=0 time=225, total_time: 32867
note_on channel=0 note=53 velocity=87 time=13, total_time: 32880
note_on channel=0 note=53 velocity=0 time=227, total_time: 33107
note_on channel=0 note=58 velocity=87 time=13, total_time: 33120
note_on channel=0 note=58 velocity=0 time=227, total_time: 33347
note_on channel=0 note=53 velocity=87 time=13, total_time: 33360
note_on channel=0 note=53 velocity=0 time=227, total_time: 33587
note_on channel=0 note=48 velocity=87 time=13, total_time: 33600
control_change channel=0 control=64 value=0 time=1, total_time: 33601
control_change channel=0 control=64 value=127 time=1, total_time: 33602
note_on channel=0 note=48 velocity=0 time=225, total_time: 33827
note_on channel=0 note=52 velocity=87 time=13, total_time: 33840
note_on channel=0 note=52 velocity=0 time=227, total_time: 34067
note_on channel=0 note=55 velocity=87 time=13, total_time: 34080
note_on channel=0 note=55 velocity=0 time=227, total_time: 34307
note_on channel=0 note=52 velocity=87 time=13, total_time: 34320
note_on channel=0 note=52 velocity=0 time=227, total_time: 34547
note_on channel=0 note=53 velocity=87 time=13, total_time: 34560
control_change channel=0 control=64 value=0 time=1, total_time: 34561
control_change channel=0 control=64 value=127 time=1, total_time: 34562
note_on channel=0 note=53 velocity=0 time=225, total_time: 34787
note_on channel=0 note=60 velocity=87 time=13, total_time: 34800
note_on channel=0 note=60 velocity=0 time=227, total_time: 35027
note_on channel=0 note=52 velocity=87 time=13, total_time: 35040
control_change channel=0 control=64 value=0 time=1, total_time: 35041
control_change channel=0 control=64 value=127 time=1, total_time: 35042
note_on channel=0 note=52 velocity=0 time=225, total_time: 35267
note_on channel=0 note=60 velocity=87 time=13, total_time: 35280
note_on channel=0 note=60 velocity=0 time=227, total_time: 35507
note_on channel=0 note=50 velocity=87 time=13, total_time: 35520
control_change channel=0 control=64 value=0 time=1, total_time: 35521
control_change channel=0 control=64 value=127 time=1, total_time: 35522
note_on channel=0 note=50 velocity=0 time=225, total_time: 35747
note_on channel=0 note=57 velocity=87 time=13, total_time: 35760
note_on channel=0 note=57 velocity=0 time=227, total_time: 35987
note_on channel=0 note=50 velocity=87 time=13, total_time: 36000
note_on channel=0 note=50 velocity=0 time=227, total_time: 36227
note_on channel=0 note=48 velocity=87 time=13, total_time: 36240
note_on channel=0 note=48 velocity=0 time=227, total_time: 36467
note_on channel=0 note=46 velocity=87 time=13, total_time: 36480
control_change channel=0 control=64 value=0 time=1, total_time: 36481
control_change channel=0 control=64 value=127 time=1, total_time: 36482
note_on channel=0 note=46 velocity=0 time=225, total_time: 36707
note_on channel=0 note=53 velocity=87 time=13, total_time: 36720
note_on channel=0 note=53 velocity=0 time=227, total_time: 36947
note_on channel=0 note=58 velocity=87 time=13, total_time: 36960
note_on channel=0 note=58 velocity=0 time=227, total_time: 37187
note_on channel=0 note=53 velocity=87 time=13, total_time: 37200
note_on channel=0 note=53 velocity=0 time=227, total_time: 37427
note_on channel=0 note=48 velocity=87 time=13, total_time: 37440
control_change channel=0 control=64 value=0 time=1, total_time: 37441
control_change channel=0 control=64 value=127 time=1, total_time: 37442
note_on channel=0 note=48 velocity=0 time=225, total_time: 37667
note_on channel=0 note=52 velocity=87 time=13, total_time: 37680
note_on channel=0 note=52 velocity=0 time=227, total_time: 37907
note_on channel=0 note=55 velocity=87 time=13, total_time: 37920
note_on channel=0 note=55 velocity=0 time=227, total_time: 38147
note_on channel=0 note=52 velocity=87 time=13, total_time: 38160
note_on channel=0 note=52 velocity=0 time=227, total_time: 38387
note_on channel=0 note=45 velocity=87 time=13, total_time: 38400
control_change channel=0 control=64 value=0 time=1, total_time: 38401
control_change channel=0 control=64 value=127 time=1, total_time: 38402
note_on channel=0 note=45 velocity=0 time=225, total_time: 38627
note_on channel=0 note=57 velocity=87 time=13, total_time: 38640
note_on channel=0 note=57 velocity=0 time=159, total_time: 38799
note_on channel=0 note=49 velocity=87 time=81, total_time: 38880
control_change channel=0 control=64 value=0 time=1, total_time: 38881
control_change channel=0 control=64 value=127 time=1, total_time: 38882
note_on channel=0 note=49 velocity=0 time=225, total_time: 39107
note_on channel=0 note=52 velocity=87 time=13, total_time: 39120
note_on channel=0 note=52 velocity=0 time=227, total_time: 39347
note_on channel=0 note=50 velocity=87 time=13, total_time: 39360
control_change channel=0 control=64 value=0 time=1, total_time: 39361
control_change channel=0 control=64 value=127 time=1, total_time: 39362
note_on channel=0 note=50 velocity=0 time=225, total_time: 39587
note_on channel=0 note=45 velocity=87 time=13, total_time: 39600
note_on channel=0 note=45 velocity=0 time=227, total_time: 39827
note_on channel=0 note=38 velocity=87 time=13, total_time: 39840
note_on channel=0 note=38 velocity=0 time=455, total_time: 40295
note_on channel=0 note=43 velocity=87 time=25, total_time: 40320
control_change channel=0 control=64 value=0 time=1, total_time: 40321
control_change channel=0 control=64 value=127 time=1, total_time: 40322
note_on channel=0 note=43 velocity=0 time=225, total_time: 40547
note_on channel=0 note=50 velocity=87 time=13, total_time: 40560
note_on channel=0 note=50 velocity=0 time=227, total_time: 40787
note_on channel=0 note=53 velocity=87 time=13, total_time: 40800
note_on channel=0 note=53 velocity=0 time=227, total_time: 41027
note_on channel=0 note=58 velocity=87 time=13, total_time: 41040
note_on channel=0 note=58 velocity=0 time=683, total_time: 41723
control_change channel=0 control=64 value=0 time=38, total_time: 41761
note_on channel=0 note=45 velocity=87 time=479, total_time: 42240
control_change channel=0 control=64 value=127 time=2, total_time: 42242
note_on channel=0 note=45 velocity=0 time=225, total_time: 42467
note_on channel=0 note=52 velocity=87 time=13, total_time: 42480
note_on channel=0 note=52 velocity=0 time=227, total_time: 42707
note_on channel=0 note=55 velocity=87 time=13, total_time: 42720
note_on channel=0 note=55 velocity=0 time=227, total_time: 42947
note_on channel=0 note=60 velocity=87 time=13, total_time: 42960
note_on channel=0 note=60 velocity=0 time=227, total_time: 43187
note_on channel=0 note=50 velocity=87 time=13, total_time: 43200
control_change channel=0 control=64 value=0 time=1, total_time: 43201
control_change channel=0 control=64 value=127 time=1, total_time: 43202
note_on channel=0 note=50 velocity=0 time=225, total_time: 43427
note_on channel=0 note=57 velocity=87 time=13, total_time: 43440
note_on channel=0 note=57 velocity=0 time=227, total_time: 43667
note_on channel=0 note=62 velocity=87 time=13, total_time: 43680
note_on channel=0 note=62 velocity=0 time=227, total_time: 43907
note_on channel=0 note=50 velocity=87 time=13, total_time: 43920
note_on channel=0 note=50 velocity=0 time=227, total_time: 44147
note_on channel=0 note=43 velocity=87 time=13, total_time: 44160
control_change channel=0 control=64 value=0 time=1, total_time: 44161
control_change channel=0 control=64 value=127 time=1, total_time: 44162
note_on channel=0 note=43 velocity=0 time=225, total_time: 44387
note_on channel=0 note=46 velocity=87 time=13, total_time: 44400
note_on channel=0 note=46 velocity=0 time=227, total_time: 44627
note_on channel=0 note=50 velocity=87 time=13, total_time: 44640
note_on channel=0 note=50 velocity=0 time=227, total_time: 44867
note_on channel=0 note=53 velocity=87 time=13, total_time: 44880
note_on channel=0 note=53 velocity=0 time=227, total_time: 45107
note_on channel=0 note=48 velocity=87 time=13, total_time: 45120
control_change channel=0 control=64 value=0 time=1, total_time: 45121
control_change channel=0 control=64 value=127 time=1, total_time: 45122
note_on channel=0 note=53 velocity=87 time=50, total_time: 45172
note_on channel=0 note=56 velocity=87 time=54, total_time: 45226
note_on channel=0 note=53 velocity=0 time=372, total_time: 45598
note_on channel=0 note=56 velocity=0 time=0, total_time: 45598
note_on channel=0 note=48 velocity=0 time=1, total_time: 45599
note_on channel=0 note=55 velocity=87 time=1, total_time: 45600
note_on channel=0 note=55 velocity=0 time=455, total_time: 46055
note_on channel=0 note=41 velocity=87 time=25, total_time: 46080
note_on channel=0 note=48 velocity=87 time=0, total_time: 46080
note_on channel=0 note=53 velocity=87 time=0, total_time: 46080
control_change channel=0 control=64 value=0 time=1, total_time: 46081
control_change channel=0 control=64 value=127 time=1, total_time: 46082
note_on channel=0 note=41 velocity=0 time=1365, total_time: 47447
note_on channel=0 note=48 velocity=0 time=0, total_time: 47447
note_on channel=0 note=53 velocity=0 time=0, total_time: 47447
control_change channel=0 control=64 value=0 time=74, total_time: 47521
note_on channel=0 note=41 velocity=87 time=479, total_time: 48000
control_change channel=0 control=64 value=127 time=2, total_time: 48002
note_on channel=0 note=41 velocity=0 time=225, total_time: 48227
note_on channel=0 note=48 velocity=87 time=13, total_time: 48240
control_change channel=0 control=64 value=0 time=1, total_time: 48241
note_on channel=0 note=48 velocity=0 time=158, total_time: 48399
note_on channel=0 note=53 velocity=87 time=81, total_time: 48480
note_on channel=0 note=53 velocity=0 time=119, total_time: 48599
note_on channel=0 note=48 velocity=87 time=121, total_time: 48720
note_on channel=0 note=48 velocity=0 time=119, total_time: 48839
note_on channel=0 note=40 velocity=87 time=121, total_time: 48960
control_change channel=0 control=64 value=127 time=2, total_time: 48962
note_on channel=0 note=40 velocity=0 time=225, total_time: 49187
note_on channel=0 note=48 velocity=87 time=13, total_time: 49200
control_change channel=0 control=64 value=0 time=1, total_time: 49201
note_on channel=0 note=48 velocity=0 time=158, total_time: 49359
note_on channel=0 note=52 velocity=87 time=81, total_time: 49440
note_on channel=0 note=52 velocity=0 time=119, total_time: 49559
note_on channel=0 note=48 velocity=87 time=121, total_time: 49680
note_on channel=0 note=48 velocity=0 time=119, total_time: 49799
note_on channel=0 note=38 velocity=87 time=121, total_time: 49920
control_change channel=0 control=64 value=127 time=2, total_time: 49922
note_on channel=0 note=38 velocity=0 time=225, total_time: 50147
note_on channel=0 note=45 velocity=87 time=13, total_time: 50160
control_change channel=0 control=64 value=0 time=1, total_time: 50161
note_on channel=0 note=45 velocity=0 time=158, total_time: 50319
note_on channel=0 note=53 velocity=87 time=81, total_time: 50400
note_on channel=0 note=53 velocity=0 time=119, total_time: 50519
note_on channel=0 note=45 velocity=87 time=121, total_time: 50640
note_on channel=0 note=45 velocity=0 time=119, total_time: 50759
note_on channel=0 note=36 velocity=87 time=121, total_time: 50880
control_change channel=0 control=64 value=127 time=2, total_time: 50882
note_on channel=0 note=36 velocity=0 time=225, total_time: 51107
note_on channel=0 note=45 velocity=87 time=13, total_time: 51120
control_change channel=0 control=64 value=0 time=1, total_time: 51121
note_on channel=0 note=45 velocity=0 time=158, total_time: 51279
note_on channel=0 note=52 velocity=87 time=81, total_time: 51360
note_on channel=0 note=52 velocity=0 time=119, total_time: 51479
note_on channel=0 note=45 velocity=87 time=121, total_time: 51600
note_on channel=0 note=45 velocity=0 time=119, total_time: 51719
note_on channel=0 note=34 velocity=87 time=121, total_time: 51840
control_change channel=0 control=64 value=127 time=2, total_time: 51842
note_on channel=0 note=34 velocity=0 time=225, total_time: 52067
note_on channel=0 note=41 velocity=87 time=13, total_time: 52080
control_change channel=0 control=64 value=0 time=1, total_time: 52081
note_on channel=0 note=41 velocity=0 time=158, total_time: 52239
note_on channel=0 note=50 velocity=87 time=81, total_time: 52320
note_on channel=0 note=50 velocity=0 time=119, total_time: 52439
note_on channel=0 note=41 velocity=87 time=121, total_time: 52560
note_on channel=0 note=41 velocity=0 time=119, total_time: 52679
note_on channel=0 note=36 velocity=87 time=121, total_time: 52800
note_on channel=0 note=36 velocity=0 time=227, total_time: 53027
note_on channel=0 note=43 velocity=87 time=13, total_time: 53040
note_on channel=0 note=43 velocity=0 time=159, total_time: 53199
note_on channel=0 note=52 velocity=87 time=81, total_time: 53280
note_on channel=0 note=52 velocity=0 time=119, total_time: 53399
note_on channel=0 note=43 velocity=87 time=121, total_time: 53520
note_on channel=0 note=43 velocity=0 time=119, total_time: 53639
note_on channel=0 note=41 velocity=87 time=121, total_time: 53760
control_change channel=0 control=64 value=127 time=2, total_time: 53762
note_on channel=0 note=41 velocity=0 time=225, total_time: 53987
note_on channel=0 note=48 velocity=87 time=13, total_time: 54000
control_change channel=0 control=64 value=0 time=1, total_time: 54001
note_on channel=0 note=48 velocity=0 time=158, total_time: 54159
note_on channel=0 note=53 velocity=87 time=81, total_time: 54240
note_on channel=0 note=53 velocity=0 time=119, total_time: 54359
note_on channel=0 note=48 velocity=87 time=121, total_time: 54480
note_on channel=0 note=48 velocity=0 time=119, total_time: 54599
note_on channel=0 note=41 velocity=87 time=121, total_time: 54720
control_change channel=0 control=64 value=127 time=2, total_time: 54722
note_on channel=0 note=41 velocity=0 time=225, total_time: 54947
note_on channel=0 note=48 velocity=87 time=13, total_time: 54960
control_change channel=0 control=64 value=0 time=1, total_time: 54961
note_on channel=0 note=48 velocity=0 time=158, total_time: 55119
note_on channel=0 note=53 velocity=87 time=81, total_time: 55200
note_on channel=0 note=53 velocity=0 time=119, total_time: 55319
note_on channel=0 note=48 velocity=87 time=121, total_time: 55440
note_on channel=0 note=48 velocity=0 time=119, total_time: 55559
note_on channel=0 note=41 velocity=87 time=121, total_time: 55680
control_change channel=0 control=64 value=127 time=2, total_time: 55682
note_on channel=0 note=41 velocity=0 time=225, total_time: 55907
note_on channel=0 note=48 velocity=87 time=13, total_time: 55920
control_change channel=0 control=64 value=0 time=1, total_time: 55921
note_on channel=0 note=48 velocity=0 time=158, total_time: 56079
note_on channel=0 note=53 velocity=87 time=81, total_time: 56160
note_on channel=0 note=53 velocity=0 time=119, total_time: 56279
note_on channel=0 note=48 velocity=87 time=121, total_time: 56400
note_on channel=0 note=48 velocity=0 time=119, total_time: 56519
note_on channel=0 note=40 velocity=87 time=121, total_time: 56640
control_change channel=0 control=64 value=127 time=2, total_time: 56642
note_on channel=0 note=40 velocity=0 time=225, total_time: 56867
note_on channel=0 note=48 velocity=87 time=13, total_time: 56880
control_change channel=0 control=64 value=0 time=1, total_time: 56881
note_on channel=0 note=48 velocity=0 time=158, total_time: 57039
note_on channel=0 note=52 velocity=87 time=81, total_time: 57120
note_on channel=0 note=52 velocity=0 time=119, total_time: 57239
note_on channel=0 note=48 velocity=87 time=121, total_time: 57360
note_on channel=0 note=48 velocity=0 time=119, total_time: 57479
note_on channel=0 note=38 velocity=87 time=121, total_time: 57600
control_change channel=0 control=64 value=127 time=2, total_time: 57602
note_on channel=0 note=38 velocity=0 time=225, total_time: 57827
note_on channel=0 note=45 velocity=87 time=13, total_time: 57840
control_change channel=0 control=64 value=0 time=1, total_time: 57841
note_on channel=0 note=45 velocity=0 time=158, total_time: 57999
note_on channel=0 note=53 velocity=87 time=81, total_time: 58080
note_on channel=0 note=53 velocity=0 time=119, total_time: 58199
note_on channel=0 note=45 velocity=87 time=121, total_time: 58320
note_on channel=0 note=45 velocity=0 time=119, total_time: 58439
note_on channel=0 note=36 velocity=87 time=121, total_time: 58560
control_change channel=0 control=64 value=127 time=2, total_time: 58562
note_on channel=0 note=36 velocity=0 time=225, total_time: 58787
note_on channel=0 note=45 velocity=87 time=13, total_time: 58800
control_change channel=0 control=64 value=0 time=1, total_time: 58801
note_on channel=0 note=45 velocity=0 time=158, total_time: 58959
note_on channel=0 note=52 velocity=87 time=81, total_time: 59040
note_on channel=0 note=52 velocity=0 time=119, total_time: 59159
note_on channel=0 note=45 velocity=87 time=121, total_time: 59280
note_on channel=0 note=45 velocity=0 time=119, total_time: 59399
note_on channel=0 note=34 velocity=87 time=121, total_time: 59520
control_change channel=0 control=64 value=127 time=2, total_time: 59522
note_on channel=0 note=34 velocity=0 time=225, total_time: 59747
note_on channel=0 note=41 velocity=87 time=13, total_time: 59760
control_change channel=0 control=64 value=0 time=1, total_time: 59761
note_on channel=0 note=41 velocity=0 time=158, total_time: 59919
note_on channel=0 note=46 velocity=87 time=81, total_time: 60000
note_on channel=0 note=46 velocity=0 time=119, total_time: 60119
note_on channel=0 note=50 velocity=87 time=121, total_time: 60240
note_on channel=0 note=50 velocity=0 time=119, total_time: 60359
note_on channel=0 note=36 velocity=87 time=121, total_time: 60480
control_change channel=0 control=64 value=127 time=2, total_time: 60482
note_on channel=0 note=36 velocity=0 time=225, total_time: 60707
note_on channel=0 note=43 velocity=87 time=13, total_time: 60720
control_change channel=0 control=64 value=0 time=1, total_time: 60721
note_on channel=0 note=43 velocity=0 time=158, total_time: 60879
note_on channel=0 note=48 velocity=87 time=81, total_time: 60960
note_on channel=0 note=48 velocity=0 time=119, total_time: 61079
note_on channel=0 note=52 velocity=87 time=121, total_time: 61200
note_on channel=0 note=52 velocity=0 time=119, total_time: 61319
note_on channel=0 note=38 velocity=87 time=121, total_time: 61440
control_change channel=0 control=64 value=127 time=2, total_time: 61442
note_on channel=0 note=38 velocity=0 time=225, total_time: 61667
note_on channel=0 note=45 velocity=87 time=13, total_time: 61680
control_change channel=0 control=64 value=0 time=1, total_time: 61681
note_on channel=0 note=45 velocity=0 time=158, total_time: 61839
note_on channel=0 note=50 velocity=87 time=81, total_time: 61920
note_on channel=0 note=50 velocity=0 time=119, total_time: 62039
note_on channel=0 note=45 velocity=87 time=121, total_time: 62160
note_on channel=0 note=45 velocity=0 time=119, total_time: 62279
note_on channel=0 note=38 velocity=87 time=121, total_time: 62400
control_change channel=0 control=64 value=127 time=2, total_time: 62402
note_on channel=0 note=38 velocity=0 time=225, total_time: 62627
note_on channel=0 note=45 velocity=87 time=13, total_time: 62640
control_change channel=0 control=64 value=0 time=1, total_time: 62641
note_on channel=0 note=45 velocity=0 time=158, total_time: 62799
note_on channel=0 note=50 velocity=87 time=81, total_time: 62880
note_on channel=0 note=50 velocity=0 time=119, total_time: 62999
note_on channel=0 note=52 velocity=87 time=121, total_time: 63120
note_on channel=0 note=52 velocity=0 time=119, total_time: 63239
note_on channel=0 note=41 velocity=87 time=121, total_time: 63360
note_on channel=0 note=53 velocity=87 time=0, total_time: 63360
control_change channel=0 control=64 value=127 time=2, total_time: 63362
note_on channel=0 note=41 velocity=0 time=225, total_time: 63587
note_on channel=0 note=53 velocity=0 time=0, total_time: 63587
note_on channel=0 note=48 velocity=87 time=13, total_time: 63600
note_on channel=0 note=48 velocity=0 time=159, total_time: 63759
note_on channel=0 note=57 velocity=87 time=81, total_time: 63840
control_change channel=0 control=64 value=0 time=1, total_time: 63841
note_on channel=0 note=57 velocity=0 time=118, total_time: 63959
note_on channel=0 note=55 velocity=87 time=121, total_time: 64080
note_on channel=0 note=55 velocity=0 time=119, total_time: 64199
note_on channel=0 note=40 velocity=87 time=121, total_time: 64320
note_on channel=0 note=52 velocity=87 time=0, total_time: 64320
control_change channel=0 control=64 value=127 time=2, total_time: 64322
note_on channel=0 note=40 velocity=0 time=225, total_time: 64547
note_on channel=0 note=52 velocity=0 time=0, total_time: 64547
note_on channel=0 note=48 velocity=87 time=13, total_time: 64560
note_on channel=0 note=48 velocity=0 time=159, total_time: 64719
note_on channel=0 note=55 velocity=87 time=81, total_time: 64800
control_change channel=0 control=64 value=0 time=1, total_time: 64801
note_on channel=0 note=55 velocity=0 time=118, total_time: 64919
note_on channel=0 note=53 velocity=87 time=121, total_time: 65040
note_on channel=0 note=53 velocity=0 time=119, total_time: 65159
note_on channel=0 note=38 velocity=87 time=121, total_time: 65280
note_on channel=0 note=50 velocity=87 time=0, total_time: 65280
control_change channel=0 control=64 value=127 time=2, total_time: 65282
note_on channel=0 note=38 velocity=0 time=225, total_time: 65507
note_on channel=0 note=50 velocity=0 time=0, total_time: 65507
note_on channel=0 note=45 velocity=87 time=13, total_time: 65520
note_on channel=0 note=45 velocity=0 time=159, total_time: 65679
note_on channel=0 note=53 velocity=87 time=81, total_time: 65760
control_change channel=0 control=64 value=0 time=1, total_time: 65761
note_on channel=0 note=53 velocity=0 time=118, total_time: 65879
note_on channel=0 note=52 velocity=87 time=121, total_time: 66000
note_on channel=0 note=52 velocity=0 time=119, total_time: 66119
note_on channel=0 note=36 velocity=87 time=121, total_time: 66240
note_on channel=0 note=48 velocity=87 time=0, total_time: 66240
control_change channel=0 control=64 value=127 time=2, total_time: 66242
note_on channel=0 note=36 velocity=0 time=225, total_time: 66467
note_on channel=0 note=48 velocity=0 time=0, total_time: 66467
note_on channel=0 note=43 velocity=87 time=13, total_time: 66480
note_on channel=0 note=43 velocity=0 time=159, total_time: 66639
note_on channel=0 note=52 velocity=87 time=81, total_time: 66720
control_change channel=0 control=64 value=0 time=1, total_time: 66721
note_on channel=0 note=52 velocity=0 time=118, total_time: 66839
note_on channel=0 note=50 velocity=87 time=121, total_time: 66960
note_on channel=0 note=50 velocity=0 time=119, total_time: 67079
note_on channel=0 note=34 velocity=87 time=121, total_time: 67200
note_on channel=0 note=46 velocity=87 time=0, total_time: 67200
control_change channel=0 control=64 value=127 time=2, total_time: 67202
note_on channel=0 note=34 velocity=0 time=225, total_time: 67427
note_on channel=0 note=46 velocity=0 time=0, total_time: 67427
note_on channel=0 note=41 velocity=87 time=13, total_time: 67440
note_on channel=0 note=41 velocity=0 time=227, total_time: 67667
note_on channel=0 note=50 velocity=87 time=13, total_time: 67680
control_change channel=0 control=64 value=0 time=1, total_time: 67681
note_on channel=0 note=50 velocity=0 time=118, total_time: 67799
note_on channel=0 note=46 velocity=87 time=121, total_time: 67920
note_on channel=0 note=46 velocity=0 time=119, total_time: 68039
note_on channel=0 note=36 velocity=87 time=121, total_time: 68160
note_on channel=0 note=48 velocity=87 time=0, total_time: 68160
note_on channel=0 note=36 velocity=0 time=227, total_time: 68387
note_on channel=0 note=48 velocity=0 time=0, total_time: 68387
note_on channel=0 note=43 velocity=87 time=13, total_time: 68400
note_on channel=0 note=43 velocity=0 time=227, total_time: 68627
note_on channel=0 note=52 velocity=87 time=13, total_time: 68640
note_on channel=0 note=52 velocity=0 time=119, total_time: 68759
note_on channel=0 note=48 velocity=87 time=121, total_time: 68880
note_on channel=0 note=48 velocity=0 time=119, total_time: 68999
note_on channel=0 note=41 velocity=87 time=121, total_time: 69120
note_on channel=0 note=53 velocity=87 time=0, total_time: 69120
control_change channel=0 control=64 value=127 time=2, total_time: 69122
note_on channel=0 note=41 velocity=0 time=225, total_time: 69347
note_on channel=0 note=53 velocity=0 time=0, total_time: 69347
note_on channel=0 note=48 velocity=87 time=13, total_time: 69360
note_on channel=0 note=48 velocity=0 time=227, total_time: 69587
note_on channel=0 note=57 velocity=87 time=13, total_time: 69600
control_change channel=0 control=64 value=0 time=1, total_time: 69601
note_on channel=0 note=57 velocity=0 time=118, total_time: 69719
note_on channel=0 note=55 velocity=87 time=121, total_time: 69840
note_on channel=0 note=55 velocity=0 time=119, total_time: 69959
note_on channel=0 note=60 velocity=87 time=121, total_time: 70080
note_on channel=0 note=60 velocity=0 time=119, total_time: 70199
note_on channel=0 note=58 velocity=87 time=121, total_time: 70320
note_on channel=0 note=58 velocity=0 time=119, total_time: 70439
note_on channel=0 note=57 velocity=87 time=121, total_time: 70560
note_on channel=0 note=57 velocity=0 time=119, total_time: 70679
note_on channel=0 note=55 velocity=87 time=121, total_time: 70800
note_on channel=0 note=55 velocity=0 time=119, total_time: 70919
note_on channel=0 note=41 velocity=87 time=121, total_time: 71040
note_on channel=0 note=53 velocity=87 time=0, total_time: 71040
control_change channel=0 control=64 value=127 time=2, total_time: 71042
note_on channel=0 note=41 velocity=0 time=225, total_time: 71267
note_on channel=0 note=53 velocity=0 time=0, total_time: 71267
note_on channel=0 note=48 velocity=87 time=13, total_time: 71280
note_on channel=0 note=48 velocity=0 time=159, total_time: 71439
note_on channel=0 note=57 velocity=87 time=81, total_time: 71520
control_change channel=0 control=64 value=0 time=1, total_time: 71521
note_on channel=0 note=57 velocity=0 time=118, total_time: 71639
note_on channel=0 note=55 velocity=87 time=121, total_time: 71760
note_on channel=0 note=55 velocity=0 time=119, total_time: 71879
note_on channel=0 note=40 velocity=87 time=121, total_time: 72000
note_on channel=0 note=52 velocity=87 time=0, total_time: 72000
control_change channel=0 control=64 value=127 time=2, total_time: 72002
note_on channel=0 note=40 velocity=0 time=225, total_time: 72227
note_on channel=0 note=52 velocity=0 time=0, total_time: 72227
note_on channel=0 note=48 velocity=87 time=13, total_time: 72240
note_on channel=0 note=48 velocity=0 time=159, total_time: 72399
note_on channel=0 note=55 velocity=87 time=81, total_time: 72480
control_change channel=0 control=64 value=0 time=1, total_time: 72481
note_on channel=0 note=55 velocity=0 time=118, total_time: 72599
note_on channel=0 note=53 velocity=87 time=121, total_time: 72720
note_on channel=0 note=53 velocity=0 time=119, total_time: 72839
note_on channel=0 note=38 velocity=87 time=121, total_time: 72960
note_on channel=0 note=50 velocity=87 time=0, total_time: 72960
control_change channel=0 control=64 value=127 time=2, total_time: 72962
note_on channel=0 note=38 velocity=0 time=225, total_time: 73187
note_on channel=0 note=50 velocity=0 time=0, total_time: 73187
note_on channel=0 note=45 velocity=87 time=13, total_time: 73200
note_on channel=0 note=45 velocity=0 time=159, total_time: 73359
note_on channel=0 note=53 velocity=87 time=81, total_time: 73440
control_change channel=0 control=64 value=0 time=1, total_time: 73441
note_on channel=0 note=53 velocity=0 time=118, total_time: 73559
note_on channel=0 note=52 velocity=87 time=121, total_time: 73680
note_on channel=0 note=52 velocity=0 time=119, total_time: 73799
note_on channel=0 note=36 velocity=87 time=121, total_time: 73920
note_on channel=0 note=48 velocity=87 time=0, total_time: 73920
control_change channel=0 control=64 value=127 time=2, total_time: 73922
note_on channel=0 note=36 velocity=0 time=225, total_time: 74147
note_on channel=0 note=48 velocity=0 time=0, total_time: 74147
note_on channel=0 note=43 velocity=87 time=13, total_time: 74160
note_on channel=0 note=43 velocity=0 time=159, total_time: 74319
note_on channel=0 note=52 velocity=87 time=81, total_time: 74400
control_change channel=0 control=64 value=0 time=1, total_time: 74401
note_on channel=0 note=52 velocity=0 time=118, total_time: 74519
note_on channel=0 note=50 velocity=87 time=121, total_time: 74640
note_on channel=0 note=50 velocity=0 time=119, total_time: 74759
note_on channel=0 note=34 velocity=87 time=121, total_time: 74880
note_on channel=0 note=46 velocity=87 time=0, total_time: 74880
control_change channel=0 control=64 value=127 time=2, total_time: 74882
note_on channel=0 note=34 velocity=0 time=225, total_time: 75107
note_on channel=0 note=46 velocity=0 time=0, total_time: 75107
note_on channel=0 note=50 velocity=87 time=13, total_time: 75120
control_change channel=0 control=64 value=0 time=1, total_time: 75121
note_on channel=0 note=50 velocity=0 time=118, total_time: 75239
note_on channel=0 note=53 velocity=87 time=121, total_time: 75360
note_on channel=0 note=53 velocity=0 time=119, total_time: 75479
note_on channel=0 note=58 velocity=87 time=121, total_time: 75600
note_on channel=0 note=58 velocity=0 time=119, total_time: 75719
note_on channel=0 note=36 velocity=87 time=121, total_time: 75840
note_on channel=0 note=48 velocity=87 time=0, total_time: 75840
control_change channel=0 control=64 value=127 time=2, total_time: 75842
note_on channel=0 note=36 velocity=0 time=225, total_time: 76067
note_on channel=0 note=48 velocity=0 time=0, total_time: 76067
note_on channel=0 note=52 velocity=87 time=13, total_time: 76080
control_change channel=0 control=64 value=0 time=1, total_time: 76081
note_on channel=0 note=52 velocity=0 time=118, total_time: 76199
note_on channel=0 note=55 velocity=87 time=121, total_time: 76320
note_on channel=0 note=55 velocity=0 time=119, total_time: 76439
note_on channel=0 note=60 velocity=87 time=121, total_time: 76560
note_on channel=0 note=60 velocity=0 time=119, total_time: 76679
note_on channel=0 note=41 velocity=87 time=121, total_time: 76800
note_on channel=0 note=53 velocity=87 time=0, total_time: 76800
control_change channel=0 control=64 value=127 time=2, total_time: 76802
note_on channel=0 note=41 velocity=0 time=225, total_time: 77027
note_on channel=0 note=53 velocity=0 time=0, total_time: 77027
note_on channel=0 note=48 velocity=87 time=13, total_time: 77040
control_change channel=0 control=64 value=0 time=1, total_time: 77041
note_on channel=0 note=48 velocity=0 time=118, total_time: 77159
note_on channel=0 note=55 velocity=87 time=121, total_time: 77280
note_on channel=0 note=55 velocity=0 time=119, total_time: 77399
note_on channel=0 note=57 velocity=87 time=121, total_time: 77520
note_on channel=0 note=57 velocity=0 time=119, total_time: 77639
note_on channel=0 note=53 velocity=87 time=121, total_time: 77760
note_on channel=0 note=53 velocity=0 time=455, total_time: 78215
note_on channel=0 note=50 velocity=87 time=505, total_time: 78720
note_on channel=0 note=53 velocity=87 time=0, total_time: 78720
note_on channel=0 note=57 velocity=87 time=0, total_time: 78720
note_on channel=0 note=50 velocity=0 time=119, total_time: 78839
note_on channel=0 note=53 velocity=0 time=0, total_time: 78839
note_on channel=0 note=57 velocity=0 time=0, total_time: 78839
note_on channel=0 note=50 velocity=87 time=601, total_time: 79440
note_on channel=0 note=53 velocity=87 time=0, total_time: 79440
note_on channel=0 note=57 velocity=87 time=0, total_time: 79440
note_on channel=0 note=50 velocity=0 time=119, total_time: 79559
note_on channel=0 note=53 velocity=0 time=0, total_time: 79559
note_on channel=0 note=57 velocity=0 time=0, total_time: 79559
note_on channel=0 note=48 velocity=87 time=121, total_time: 79680
note_on channel=0 note=52 velocity=87 time=0, total_time: 79680
note_on channel=0 note=55 velocity=87 time=0, total_time: 79680
note_on channel=0 note=48 velocity=0 time=455, total_time: 80135
note_on channel=0 note=52 velocity=0 time=0, total_time: 80135
note_on channel=0 note=55 velocity=0 time=0, total_time: 80135
note_on channel=0 note=48 velocity=87 time=265, total_time: 80400
note_on channel=0 note=52 velocity=87 time=0, total_time: 80400
note_on channel=0 note=55 velocity=87 time=0, total_time: 80400
note_on channel=0 note=48 velocity=0 time=119, total_time: 80519
note_on channel=0 note=52 velocity=0 time=0, total_time: 80519
note_on channel=0 note=55 velocity=0 time=0, total_time: 80519
note_on channel=0 note=46 velocity=87 time=121, total_time: 80640
note_on channel=0 note=50 velocity=87 time=0, total_time: 80640
note_on channel=0 note=53 velocity=87 time=0, total_time: 80640
note_on channel=0 note=46 velocity=0 time=119, total_time: 80759
note_on channel=0 note=50 velocity=0 time=0, total_time: 80759
note_on channel=0 note=53 velocity=0 time=0, total_time: 80759
note_on channel=0 note=46 velocity=87 time=601, total_time: 81360
note_on channel=0 note=50 velocity=87 time=0, total_time: 81360
note_on channel=0 note=53 velocity=87 time=0, total_time: 81360
note_on channel=0 note=46 velocity=0 time=119, total_time: 81479
note_on channel=0 note=50 velocity=0 time=0, total_time: 81479
note_on channel=0 note=53 velocity=0 time=0, total_time: 81479
note_on channel=0 note=45 velocity=87 time=121, total_time: 81600
note_on channel=0 note=48 velocity=87 time=0, total_time: 81600
note_on channel=0 note=52 velocity=87 time=0, total_time: 81600
note_on channel=0 note=45 velocity=0 time=455, total_time: 82055
note_on channel=0 note=48 velocity=0 time=0, total_time: 82055
note_on channel=0 note=52 velocity=0 time=0, total_time: 82055
note_on channel=0 note=45 velocity=87 time=265, total_time: 82320
note_on channel=0 note=48 velocity=87 time=0, total_time: 82320
note_on channel=0 note=52 velocity=87 time=0, total_time: 82320
note_on channel=0 note=45 velocity=0 time=119, total_time: 82439
note_on channel=0 note=48 velocity=0 time=0, total_time: 82439
note_on channel=0 note=52 velocity=0 time=0, total_time: 82439
note_on channel=0 note=43 velocity=87 time=121, total_time: 82560
note_on channel=0 note=46 velocity=87 time=0, total_time: 82560
note_on channel=0 note=50 velocity=87 time=0, total_time: 82560
note_on channel=0 note=43 velocity=0 time=119, total_time: 82679
note_on channel=0 note=46 velocity=0 time=0, total_time: 82679
note_on channel=0 note=50 velocity=0 time=0, total_time: 82679
note_on channel=0 note=43 velocity=87 time=601, total_time: 83280
note_on channel=0 note=46 velocity=87 time=0, total_time: 83280
note_on channel=0 note=50 velocity=87 time=0, total_time: 83280
note_on channel=0 note=43 velocity=0 time=119, total_time: 83399
note_on channel=0 note=46 velocity=0 time=0, total_time: 83399
note_on channel=0 note=50 velocity=0 time=0, total_time: 83399
note_on channel=0 note=41 velocity=87 time=121, total_time: 83520
note_on channel=0 note=45 velocity=87 time=0, total_time: 83520
note_on channel=0 note=48 velocity=87 time=0, total_time: 83520
note_on channel=0 note=41 velocity=0 time=455, total_time: 83975
note_on channel=0 note=45 velocity=0 time=0, total_time: 83975
note_on channel=0 note=48 velocity=0 time=0, total_time: 83975
note_on channel=0 note=41 velocity=87 time=265, total_time: 84240
note_on channel=0 note=45 velocity=87 time=0, total_time: 84240
note_on channel=0 note=48 velocity=87 time=0, total_time: 84240
note_on channel=0 note=41 velocity=0 time=119, total_time: 84359
note_on channel=0 note=45 velocity=0 time=0, total_time: 84359
note_on channel=0 note=48 velocity=0 time=0, total_time: 84359
note_on channel=0 note=40 velocity=87 time=121, total_time: 84480
note_on channel=0 note=40 velocity=0 time=119, total_time: 84599
note_on channel=0 note=43 velocity=87 time=121, total_time: 84720
note_on channel=0 note=43 velocity=0 time=119, total_time: 84839
note_on channel=0 note=46 velocity=87 time=121, total_time: 84960
note_on channel=0 note=46 velocity=0 time=119, total_time: 85079
note_on channel=0 note=50 velocity=87 time=121, total_time: 85200
note_on channel=0 note=50 velocity=0 time=119, total_time: 85319
note_on channel=0 note=45 velocity=87 time=121, total_time: 85440
note_on channel=0 note=45 velocity=0 time=119, total_time: 85559
note_on channel=0 note=47 velocity=87 time=121, total_time: 85680
note_on channel=0 note=47 velocity=0 time=119, total_time: 85799
note_on channel=0 note=49 velocity=87 time=121, total_time: 85920
control_change channel=0 control=64 value=127 time=2, total_time: 85922
note_on channel=0 note=49 velocity=0 time=225, total_time: 86147
note_on channel=0 note=45 velocity=87 time=13, total_time: 86160
note_on channel=0 note=45 velocity=0 time=227, total_time: 86387
note_on channel=0 note=50 velocity=87 time=13, total_time: 86400
note_on channel=0 note=53 velocity=87 time=0, total_time: 86400
note_on channel=0 note=57 velocity=87 time=0, total_time: 86400
control_change channel=0 control=64 value=0 time=1, total_time: 86401
note_on channel=0 note=50 velocity=0 time=118, total_time: 86519
note_on channel=0 note=53 velocity=0 time=0, total_time: 86519
note_on channel=0 note=57 velocity=0 time=0, total_time: 86519
note_on channel=0 note=50 velocity=87 time=601, total_time: 87120
note_on channel=0 note=53 velocity=87 time=0, total_time: 87120
note_on channel=0 note=57 velocity=87 time=0, total_time: 87120
note_on channel=0 note=50 velocity=0 time=119, total_time: 87239
note_on channel=0 note=53 velocity=0 time=0, total_time: 87239
note_on channel=0 note=57 velocity=0 time=0, total_time: 87239
note_on channel=0 note=48 velocity=87 time=121, total_time: 87360
note_on channel=0 note=52 velocity=87 time=0, total_time: 87360
note_on channel=0 note=55 velocity=87 time=0, total_time: 87360
note_on channel=0 note=48 velocity=0 time=455, total_time: 87815
note_on channel=0 note=52 velocity=0 time=0, total_time: 87815
note_on channel=0 note=55 velocity=0 time=0, total_time: 87815
note_on channel=0 note=48 velocity=87 time=265, total_time: 88080
note_on channel=0 note=52 velocity=87 time=0, total_time: 88080
note_on channel=0 note=55 velocity=87 time=0, total_time: 88080
note_on channel=0 note=48 velocity=0 time=119, total_time: 88199
note_on channel=0 note=52 velocity=0 time=0, total_time: 88199
note_on channel=0 note=55 velocity=0 time=0, total_time: 88199
note_on channel=0 note=46 velocity=87 time=121, total_time: 88320
note_on channel=0 note=50 velocity=87 time=0, total_time: 88320
note_on channel=0 note=53 velocity=87 time=0, total_time: 88320
note_on channel=0 note=46 velocity=0 time=119, total_time: 88439
note_on channel=0 note=50 velocity=0 time=0, total_time: 88439
note_on channel=0 note=53 velocity=0 time=0, total_time: 88439
note_on channel=0 note=46 velocity=87 time=601, total_time: 89040
note_on channel=0 note=50 velocity=87 time=0, total_time: 89040
note_on channel=0 note=53 velocity=87 time=0, total_time: 89040
note_on channel=0 note=46 velocity=0 time=119, total_time: 89159
note_on channel=0 note=50 velocity=0 time=0, total_time: 89159
note_on channel=0 note=53 velocity=0 time=0, total_time: 89159
note_on channel=0 note=45 velocity=87 time=121, total_time: 89280
note_on channel=0 note=48 velocity=87 time=0, total_time: 89280
note_on channel=0 note=52 velocity=87 time=0, total_time: 89280
note_on channel=0 note=45 velocity=0 time=455, total_time: 89735
note_on channel=0 note=48 velocity=0 time=0, total_time: 89735
note_on channel=0 note=52 velocity=0 time=0, total_time: 89735
note_on channel=0 note=45 velocity=87 time=265, total_time: 90000
note_on channel=0 note=48 velocity=87 time=0, total_time: 90000
note_on channel=0 note=52 velocity=87 time=0, total_time: 90000
note_on channel=0 note=45 velocity=0 time=119, total_time: 90119
note_on channel=0 note=48 velocity=0 time=0, total_time: 90119
note_on channel=0 note=52 velocity=0 time=0, total_time: 90119
note_on channel=0 note=43 velocity=87 time=121, total_time: 90240
note_on channel=0 note=46 velocity=87 time=0, total_time: 90240
note_on channel=0 note=50 velocity=87 time=0, total_time: 90240
note_on channel=0 note=43 velocity=0 time=119, total_time: 90359
note_on channel=0 note=46 velocity=0 time=0, total_time: 90359
note_on channel=0 note=50 velocity=0 time=0, total_time: 90359
note_on channel=0 note=43 velocity=87 time=601, total_time: 90960
note_on channel=0 note=46 velocity=87 time=0, total_time: 90960
note_on channel=0 note=50 velocity=87 time=0, total_time: 90960
note_on channel=0 note=43 velocity=0 time=119, total_time: 91079
note_on channel=0 note=46 velocity=0 time=0, total_time: 91079
note_on channel=0 note=50 velocity=0 time=0, total_time: 91079
note_on channel=0 note=41 velocity=87 time=121, total_time: 91200
note_on channel=0 note=45 velocity=87 time=0, total_time: 91200
note_on channel=0 note=48 velocity=87 time=0, total_time: 91200
note_on channel=0 note=41 velocity=0 time=455, total_time: 91655
note_on channel=0 note=45 velocity=0 time=0, total_time: 91655
note_on channel=0 note=48 velocity=0 time=0, total_time: 91655
note_on channel=0 note=41 velocity=87 time=265, total_time: 91920
note_on channel=0 note=45 velocity=87 time=0, total_time: 91920
note_on channel=0 note=48 velocity=87 time=0, total_time: 91920
note_on channel=0 note=41 velocity=0 time=119, total_time: 92039
note_on channel=0 note=45 velocity=0 time=0, total_time: 92039
note_on channel=0 note=48 velocity=0 time=0, total_time: 92039
note_on channel=0 note=31 velocity=87 time=121, total_time: 92160
note_on channel=0 note=43 velocity=87 time=0, total_time: 92160
note_on channel=0 note=31 velocity=0 time=119, total_time: 92279
note_on channel=0 note=43 velocity=0 time=0, total_time: 92279
note_on channel=0 note=34 velocity=87 time=121, total_time: 92400
note_on channel=0 note=46 velocity=87 time=0, total_time: 92400
note_on channel=0 note=34 velocity=0 time=119, total_time: 92519
note_on channel=0 note=46 velocity=0 time=0, total_time: 92519
note_on channel=0 note=38 velocity=87 time=121, total_time: 92640
note_on channel=0 note=50 velocity=87 time=0, total_time: 92640
note_on channel=0 note=38 velocity=0 time=119, total_time: 92759
note_on channel=0 note=50 velocity=0 time=0, total_time: 92759
note_on channel=0 note=41 velocity=87 time=121, total_time: 92880
note_on channel=0 note=53 velocity=87 time=0, total_time: 92880
note_on channel=0 note=41 velocity=0 time=119, total_time: 92999
note_on channel=0 note=53 velocity=0 time=0, total_time: 92999
note_on channel=0 note=48 velocity=87 time=121, total_time: 93120
note_on channel=0 note=52 velocity=87 time=0, total_time: 93120
note_on channel=0 note=52 velocity=0 time=119, total_time: 93239
note_on channel=0 note=48 velocity=0 time=120, total_time: 93359
note_on channel=0 note=53 velocity=87 time=1, total_time: 93360
note_on channel=0 note=53 velocity=0 time=119, total_time: 93479
note_on channel=0 note=55 velocity=87 time=121, total_time: 93600
note_on channel=0 note=55 velocity=0 time=227, total_time: 93827
note_on channel=0 note=36 velocity=87 time=253, total_time: 94080
control_change channel=0 control=64 value=127 time=2, total_time: 94082
note_on channel=0 note=36 velocity=0 time=909, total_time: 94991
control_change channel=0 control=64 value=0 time=50, total_time: 95041
note_on channel=0 note=41 velocity=87 time=959, total_time: 96000
control_change channel=0 control=64 value=127 time=2, total_time: 96002
note_on channel=0 note=41 velocity=0 time=225, total_time: 96227
note_on channel=0 note=48 velocity=87 time=13, total_time: 96240
note_on channel=0 note=48 velocity=0 time=227, total_time: 96467
note_on channel=0 note=53 velocity=87 time=13, total_time: 96480
note_on channel=0 note=57 velocity=87 time=0, total_time: 96480
note_on channel=0 note=53 velocity=0 time=227, total_time: 96707
note_on channel=0 note=57 velocity=0 time=0, total_time: 96707
note_on channel=0 note=48 velocity=87 time=13, total_time: 96720
note_on channel=0 note=48 velocity=0 time=227, total_time: 96947
note_on channel=0 note=40 velocity=87 time=13, total_time: 96960
control_change channel=0 control=64 value=0 time=1, total_time: 96961
control_change channel=0 control=64 value=127 time=1, total_time: 96962
note_on channel=0 note=40 velocity=0 time=225, total_time: 97187
note_on channel=0 note=48 velocity=87 time=13, total_time: 97200
note_on channel=0 note=48 velocity=0 time=227, total_time: 97427
note_on channel=0 note=52 velocity=87 time=13, total_time: 97440
note_on channel=0 note=55 velocity=87 time=0, total_time: 97440
note_on channel=0 note=52 velocity=0 time=227, total_time: 97667
note_on channel=0 note=55 velocity=0 time=0, total_time: 97667
note_on channel=0 note=48 velocity=87 time=13, total_time: 97680
note_on channel=0 note=48 velocity=0 time=227, total_time: 97907
note_on channel=0 note=38 velocity=87 time=13, total_time: 97920
control_change channel=0 control=64 value=0 time=1, total_time: 97921
control_change channel=0 control=64 value=127 time=1, total_time: 97922
note_on channel=0 note=38 velocity=0 time=225, total_time: 98147
note_on channel=0 note=45 velocity=87 time=13, total_time: 98160
note_on channel=0 note=45 velocity=0 time=227, total_time: 98387
note_on channel=0 note=50 velocity=87 time=13, total_time: 98400
note_on channel=0 note=53 velocity=87 time=0, total_time: 98400
note_on channel=0 note=50 velocity=0 time=227, total_time: 98627
note_on channel=0 note=53 velocity=0 time=0, total_time: 98627
note_on channel=0 note=45 velocity=87 time=13, total_time: 98640
note_on channel=0 note=45 velocity=0 time=227, total_time: 98867
note_on channel=0 note=36 velocity=87 time=13, total_time: 98880
control_change channel=0 control=64 value=0 time=1, total_time: 98881
control_change channel=0 control=64 value=127 time=1, total_time: 98882
note_on channel=0 note=36 velocity=0 time=225, total_time: 99107
note_on channel=0 note=43 velocity=87 time=13, total_time: 99120
note_on channel=0 note=43 velocity=0 time=227, total_time: 99347
note_on channel=0 note=48 velocity=87 time=13, total_time: 99360
note_on channel=0 note=52 velocity=87 time=0, total_time: 99360
note_on channel=0 note=48 velocity=0 time=227, total_time: 99587
note_on channel=0 note=52 velocity=0 time=0, total_time: 99587
note_on channel=0 note=43 velocity=87 time=13, total_time: 99600
note_on channel=0 note=43 velocity=0 time=227, total_time: 99827
note_on channel=0 note=34 velocity=87 time=13, total_time: 99840
control_change channel=0 control=64 value=0 time=1, total_time: 99841
control_change channel=0 control=64 value=127 time=1, total_time: 99842
note_on channel=0 note=34 velocity=0 time=225, total_time: 100067
note_on channel=0 note=41 velocity=87 time=13, total_time: 100080
note_on channel=0 note=41 velocity=0 time=227, total_time: 100307
note_on channel=0 note=46 velocity=87 time=13, total_time: 100320
note_on channel=0 note=50 velocity=87 time=0, total_time: 100320
note_on channel=0 note=46 velocity=0 time=227, total_time: 100547
note_on channel=0 note=50 velocity=0 time=0, total_time: 100547
note_on channel=0 note=41 velocity=87 time=13, total_time: 100560
note_on channel=0 note=41 velocity=0 time=227, total_time: 100787
note_on channel=0 note=36 velocity=87 time=13, total_time: 100800
control_change channel=0 control=64 value=0 time=1, total_time: 100801
control_change channel=0 control=64 value=127 time=1, total_time: 100802
note_on channel=0 note=36 velocity=0 time=225, total_time: 101027
note_on channel=0 note=43 velocity=87 time=13, total_time: 101040
note_on channel=0 note=43 velocity=0 time=227, total_time: 101267
note_on channel=0 note=48 velocity=87 time=13, total_time: 101280
note_on channel=0 note=52 velocity=87 time=0, total_time: 101280
note_on channel=0 note=48 velocity=0 time=227, total_time: 101507
note_on channel=0 note=52 velocity=0 time=0, total_time: 101507
note_on channel=0 note=43 velocity=87 time=13, total_time: 101520
note_on channel=0 note=43 velocity=0 time=227, total_time: 101747
note_on channel=0 note=41 velocity=87 time=13, total_time: 101760
control_change channel=0 control=64 value=0 time=1, total_time: 101761
control_change channel=0 control=64 value=127 time=1, total_time: 101762
note_on channel=0 note=41 velocity=0 time=225, total_time: 101987
note_on channel=0 note=48 velocity=87 time=13, total_time: 102000
note_on channel=0 note=48 velocity=0 time=227, total_time: 102227
note_on channel=0 note=53 velocity=87 time=13, total_time: 102240
note_on channel=0 note=57 velocity=87 time=0, total_time: 102240
note_on channel=0 note=53 velocity=0 time=227, total_time: 102467
note_on channel=0 note=57 velocity=0 time=0, total_time: 102467
note_on channel=0 note=48 velocity=87 time=13, total_time: 102480
note_on channel=0 note=48 velocity=0 time=227, total_time: 102707
note_on channel=0 note=41 velocity=87 time=13, total_time: 102720
control_change channel=0 control=64 value=0 time=1, total_time: 102721
control_change channel=0 control=64 value=127 time=1, total_time: 102722
note_on channel=0 note=41 velocity=0 time=225, total_time: 102947
note_on channel=0 note=48 velocity=87 time=13, total_time: 102960
note_on channel=0 note=48 velocity=0 time=227, total_time: 103187
note_on channel=0 note=53 velocity=87 time=13, total_time: 103200
note_on channel=0 note=57 velocity=87 time=0, total_time: 103200
note_on channel=0 note=53 velocity=0 time=227, total_time: 103427
note_on channel=0 note=57 velocity=0 time=0, total_time: 103427
note_on channel=0 note=48 velocity=87 time=13, total_time: 103440
note_on channel=0 note=48 velocity=0 time=227, total_time: 103667
note_on channel=0 note=41 velocity=87 time=13, total_time: 103680
control_change channel=0 control=64 value=0 time=1, total_time: 103681
control_change channel=0 control=64 value=127 time=1, total_time: 103682
note_on channel=0 note=41 velocity=0 time=225, total_time: 103907
note_on channel=0 note=48 velocity=87 time=13, total_time: 103920
note_on channel=0 note=48 velocity=0 time=227, total_time: 104147
note_on channel=0 note=53 velocity=87 time=13, total_time: 104160
note_on channel=0 note=57 velocity=87 time=0, total_time: 104160
note_on channel=0 note=53 velocity=0 time=227, total_time: 104387
note_on channel=0 note=57 velocity=0 time=0, total_time: 104387
note_on channel=0 note=48 velocity=87 time=13, total_time: 104400
note_on channel=0 note=48 velocity=0 time=227, total_time: 104627
note_on channel=0 note=40 velocity=87 time=13, total_time: 104640
control_change channel=0 control=64 value=0 time=1, total_time: 104641
control_change channel=0 control=64 value=127 time=1, total_time: 104642
note_on channel=0 note=40 velocity=0 time=225, total_time: 104867
note_on channel=0 note=48 velocity=87 time=13, total_time: 104880
note_on channel=0 note=48 velocity=0 time=227, total_time: 105107
note_on channel=0 note=52 velocity=87 time=13, total_time: 105120
note_on channel=0 note=55 velocity=87 time=0, total_time: 105120
note_on channel=0 note=52 velocity=0 time=227, total_time: 105347
note_on channel=0 note=55 velocity=0 time=0, total_time: 105347
note_on channel=0 note=48 velocity=87 time=13, total_time: 105360
note_on channel=0 note=48 velocity=0 time=227, total_time: 105587
note_on channel=0 note=38 velocity=87 time=13, total_time: 105600
control_change channel=0 control=64 value=0 time=1, total_time: 105601
control_change channel=0 control=64 value=127 time=1, total_time: 105602
note_on channel=0 note=38 velocity=0 time=225, total_time: 105827
note_on channel=0 note=45 velocity=87 time=13, total_time: 105840
note_on channel=0 note=45 velocity=0 time=227, total_time: 106067
note_on channel=0 note=50 velocity=87 time=13, total_time: 106080
note_on channel=0 note=53 velocity=87 time=0, total_time: 106080
note_on channel=0 note=50 velocity=0 time=227, total_time: 106307
note_on channel=0 note=53 velocity=0 time=0, total_time: 106307
note_on channel=0 note=45 velocity=87 time=13, total_time: 106320
note_on channel=0 note=45 velocity=0 time=227, total_time: 106547
note_on channel=0 note=36 velocity=87 time=13, total_time: 106560
control_change channel=0 control=64 value=0 time=1, total_time: 106561
control_change channel=0 control=64 value=127 time=1, total_time: 106562
note_on channel=0 note=36 velocity=0 time=225, total_time: 106787
note_on channel=0 note=43 velocity=87 time=13, total_time: 106800
note_on channel=0 note=43 velocity=0 time=227, total_time: 107027
note_on channel=0 note=48 velocity=87 time=13, total_time: 107040
note_on channel=0 note=52 velocity=87 time=0, total_time: 107040
note_on channel=0 note=48 velocity=0 time=227, total_time: 107267
note_on channel=0 note=52 velocity=0 time=0, total_time: 107267
note_on channel=0 note=43 velocity=87 time=13, total_time: 107280
note_on channel=0 note=43 velocity=0 time=227, total_time: 107507
note_on channel=0 note=34 velocity=87 time=13, total_time: 107520
control_change channel=0 control=64 value=0 time=1, total_time: 107521
control_change channel=0 control=64 value=127 time=1, total_time: 107522
note_on channel=0 note=34 velocity=0 time=225, total_time: 107747
note_on channel=0 note=41 velocity=87 time=13, total_time: 107760
note_on channel=0 note=41 velocity=0 time=227, total_time: 107987
note_on channel=0 note=46 velocity=87 time=13, total_time: 108000
note_on channel=0 note=46 velocity=0 time=227, total_time: 108227
note_on channel=0 note=50 velocity=87 time=13, total_time: 108240
note_on channel=0 note=50 velocity=0 time=227, total_time: 108467
note_on channel=0 note=36 velocity=87 time=13, total_time: 108480
control_change channel=0 control=64 value=0 time=1, total_time: 108481
control_change channel=0 control=64 value=127 time=1, total_time: 108482
note_on channel=0 note=36 velocity=0 time=225, total_time: 108707
note_on channel=0 note=43 velocity=87 time=13, total_time: 108720
note_on channel=0 note=43 velocity=0 time=227, total_time: 108947
note_on channel=0 note=48 velocity=87 time=13, total_time: 108960
note_on channel=0 note=48 velocity=0 time=227, total_time: 109187
note_on channel=0 note=52 velocity=87 time=13, total_time: 109200
note_on channel=0 note=52 velocity=0 time=227, total_time: 109427
note_on channel=0 note=41 velocity=87 time=13, total_time: 109440
control_change channel=0 control=64 value=0 time=1, total_time: 109441
control_change channel=0 control=64 value=127 time=1, total_time: 109442
note_on channel=0 note=41 velocity=0 time=225, total_time: 109667
note_on channel=0 note=46 velocity=86 time=13, total_time: 109680
note_on channel=0 note=46 velocity=0 time=227, total_time: 109907
note_on channel=0 note=48 velocity=84 time=13, total_time: 109920
note_on channel=0 note=48 velocity=0 time=227, total_time: 110147
note_on channel=0 note=55 velocity=82 time=13, total_time: 110160
note_on channel=0 note=55 velocity=0 time=227, total_time: 110387
note_on channel=0 note=53 velocity=81 time=13, total_time: 110400
control_change channel=0 control=64 value=0 time=1, total_time: 110401
control_change channel=0 control=64 value=127 time=1, total_time: 110402
note_on channel=0 note=53 velocity=0 time=453, total_time: 110855
control_change channel=0 control=64 value=0 time=266, total_time: 111121
note_on channel=0 note=65 velocity=75 time=239, total_time: 111360
control_change channel=0 control=64 value=127 time=2, total_time: 111362
note_on channel=0 note=65 velocity=0 time=225, total_time: 111587
note_on channel=0 note=69 velocity=75 time=13, total_time: 111600
note_on channel=0 note=72 velocity=75 time=0, total_time: 111600
control_change channel=0 control=64 value=0 time=1, total_time: 111601
note_on channel=0 note=69 velocity=0 time=118, total_time: 111719
note_on channel=0 note=72 velocity=0 time=0, total_time: 111719
note_on channel=0 note=69 velocity=75 time=121, total_time: 111840
note_on channel=0 note=72 velocity=75 time=0, total_time: 111840
note_on channel=0 note=69 velocity=0 time=119, total_time: 111959
note_on channel=0 note=72 velocity=0 time=0, total_time: 111959
note_on channel=0 note=64 velocity=75 time=121, total_time: 112080
control_change channel=0 control=64 value=127 time=2, total_time: 112082
note_on channel=0 note=64 velocity=0 time=225, total_time: 112307
note_on channel=0 note=67 velocity=75 time=13, total_time: 112320
note_on channel=0 note=72 velocity=75 time=0, total_time: 112320
control_change channel=0 control=64 value=0 time=1, total_time: 112321
note_on channel=0 note=67 velocity=0 time=118, total_time: 112439
note_on channel=0 note=72 velocity=0 time=0, total_time: 112439
note_on channel=0 note=67 velocity=75 time=121, total_time: 112560
note_on channel=0 note=72 velocity=75 time=0, total_time: 112560
note_on channel=0 note=67 velocity=0 time=119, total_time: 112679
note_on channel=0 note=72 velocity=0 time=0, total_time: 112679
note_on channel=0 note=62 velocity=75 time=121, total_time: 112800
control_change channel=0 control=64 value=127 time=2, total_time: 112802
note_on channel=0 note=62 velocity=0 time=225, total_time: 113027
note_on channel=0 note=65 velocity=75 time=13, total_time: 113040
note_on channel=0 note=69 velocity=75 time=0, total_time: 113040
control_change channel=0 control=64 value=0 time=1, total_time: 113041
note_on channel=0 note=65 velocity=0 time=118, total_time: 113159
note_on channel=0 note=69 velocity=0 time=0, total_time: 113159
note_on channel=0 note=65 velocity=75 time=121, total_time: 113280
note_on channel=0 note=69 velocity=75 time=0, total_time: 113280
note_on channel=0 note=65 velocity=0 time=119, total_time: 113399
note_on channel=0 note=69 velocity=0 time=0, total_time: 113399
note_on channel=0 note=60 velocity=75 time=121, total_time: 113520
control_change channel=0 control=64 value=127 time=2, total_time: 113522
note_on channel=0 note=60 velocity=0 time=225, total_time: 113747
note_on channel=0 note=64 velocity=75 time=13, total_time: 113760
note_on channel=0 note=69 velocity=75 time=0, total_time: 113760
control_change channel=0 control=64 value=0 time=1, total_time: 113761
note_on channel=0 note=64 velocity=0 time=118, total_time: 113879
note_on channel=0 note=69 velocity=0 time=0, total_time: 113879
note_on channel=0 note=64 velocity=75 time=121, total_time: 114000
note_on channel=0 note=69 velocity=75 time=0, total_time: 114000
note_on channel=0 note=64 velocity=0 time=119, total_time: 114119
note_on channel=0 note=69 velocity=0 time=0, total_time: 114119
note_on channel=0 note=58 velocity=75 time=121, total_time: 114240
control_change channel=0 control=64 value=127 time=2, total_time: 114242
note_on channel=0 note=58 velocity=0 time=225, total_time: 114467
note_on channel=0 note=62 velocity=75 time=13, total_time: 114480
note_on channel=0 note=65 velocity=75 time=0, total_time: 114480
control_change channel=0 control=64 value=0 time=1, total_time: 114481
note_on channel=0 note=62 velocity=0 time=118, total_time: 114599
note_on channel=0 note=65 velocity=0 time=0, total_time: 114599
note_on channel=0 note=62 velocity=75 time=121, total_time: 114720
note_on channel=0 note=65 velocity=75 time=0, total_time: 114720
note_on channel=0 note=62 velocity=0 time=119, total_time: 114839
note_on channel=0 note=65 velocity=0 time=0, total_time: 114839
note_on channel=0 note=60 velocity=75 time=121, total_time: 114960
control_change channel=0 control=64 value=127 time=2, total_time: 114962
note_on channel=0 note=60 velocity=0 time=225, total_time: 115187
note_on channel=0 note=64 velocity=75 time=13, total_time: 115200
note_on channel=0 note=67 velocity=75 time=0, total_time: 115200
control_change channel=0 control=64 value=0 time=1, total_time: 115201
note_on channel=0 note=64 velocity=0 time=118, total_time: 115319
note_on channel=0 note=67 velocity=0 time=0, total_time: 115319
note_on channel=0 note=64 velocity=75 time=121, total_time: 115440
note_on channel=0 note=67 velocity=75 time=0, total_time: 115440
note_on channel=0 note=64 velocity=0 time=119, total_time: 115559
note_on channel=0 note=67 velocity=0 time=0, total_time: 115559
note_on channel=0 note=65 velocity=75 time=121, total_time: 115680
control_change channel=0 control=64 value=127 time=2, total_time: 115682
note_on channel=0 note=65 velocity=0 time=225, total_time: 115907
note_on channel=0 note=69 velocity=75 time=13, total_time: 115920
note_on channel=0 note=72 velocity=75 time=0, total_time: 115920
control_change channel=0 control=64 value=0 time=1, total_time: 115921
note_on channel=0 note=69 velocity=0 time=118, total_time: 116039
note_on channel=0 note=72 velocity=0 time=0, total_time: 116039
note_on channel=0 note=69 velocity=75 time=121, total_time: 116160
note_on channel=0 note=72 velocity=75 time=0, total_time: 116160
note_on channel=0 note=69 velocity=0 time=119, total_time: 116279
note_on channel=0 note=72 velocity=0 time=0, total_time: 116279
note_on channel=0 note=65 velocity=75 time=121, total_time: 116400
control_change channel=0 control=64 value=127 time=2, total_time: 116402
note_on channel=0 note=65 velocity=0 time=225, total_time: 116627
note_on channel=0 note=69 velocity=75 time=13, total_time: 116640
note_on channel=0 note=72 velocity=75 time=0, total_time: 116640
control_change channel=0 control=64 value=0 time=1, total_time: 116641
note_on channel=0 note=69 velocity=0 time=118, total_time: 116759
note_on channel=0 note=72 velocity=0 time=0, total_time: 116759
note_on channel=0 note=69 velocity=75 time=121, total_time: 116880
note_on channel=0 note=72 velocity=75 time=0, total_time: 116880
note_on channel=0 note=69 velocity=0 time=119, total_time: 116999
note_on channel=0 note=72 velocity=0 time=0, total_time: 116999
note_on channel=0 note=65 velocity=75 time=121, total_time: 117120
control_change channel=0 control=64 value=127 time=2, total_time: 117122
note_on channel=0 note=65 velocity=0 time=225, total_time: 117347
note_on channel=0 note=69 velocity=75 time=13, total_time: 117360
note_on channel=0 note=72 velocity=75 time=0, total_time: 117360
control_change channel=0 control=64 value=0 time=1, total_time: 117361
note_on channel=0 note=69 velocity=0 time=118, total_time: 117479
note_on channel=0 note=72 velocity=0 time=0, total_time: 117479
note_on channel=0 note=69 velocity=75 time=121, total_time: 117600
note_on channel=0 note=72 velocity=75 time=0, total_time: 117600
note_on channel=0 note=69 velocity=0 time=119, total_time: 117719
note_on channel=0 note=72 velocity=0 time=0, total_time: 117719
note_on channel=0 note=64 velocity=75 time=121, total_time: 117840
control_change channel=0 control=64 value=127 time=2, total_time: 117842
note_on channel=0 note=64 velocity=0 time=225, total_time: 118067
note_on channel=0 note=67 velocity=75 time=13, total_time: 118080
note_on channel=0 note=72 velocity=75 time=0, total_time: 118080
control_change channel=0 control=64 value=0 time=1, total_time: 118081
note_on channel=0 note=67 velocity=0 time=118, total_time: 118199
note_on channel=0 note=72 velocity=0 time=0, total_time: 118199
note_on channel=0 note=67 velocity=75 time=121, total_time: 118320
note_on channel=0 note=72 velocity=75 time=0, total_time: 118320
note_on channel=0 note=67 velocity=0 time=119, total_time: 118439
note_on channel=0 note=72 velocity=0 time=0, total_time: 118439
note_on channel=0 note=62 velocity=75 time=121, total_time: 118560
control_change channel=0 control=64 value=127 time=2, total_time: 118562
note_on channel=0 note=62 velocity=0 time=225, total_time: 118787
note_on channel=0 note=65 velocity=75 time=13, total_time: 118800
note_on channel=0 note=69 velocity=75 time=0, total_time: 118800
control_change channel=0 control=64 value=0 time=1, total_time: 118801
note_on channel=0 note=65 velocity=0 time=118, total_time: 118919
note_on channel=0 note=69 velocity=0 time=0, total_time: 118919
note_on channel=0 note=65 velocity=75 time=121, total_time: 119040
note_on channel=0 note=69 velocity=75 time=0, total_time: 119040
note_on channel=0 note=65 velocity=0 time=119, total_time: 119159
note_on channel=0 note=69 velocity=0 time=0, total_time: 119159
note_on channel=0 note=60 velocity=75 time=121, total_time: 119280
control_change channel=0 control=64 value=127 time=2, total_time: 119282
note_on channel=0 note=60 velocity=0 time=225, total_time: 119507
note_on channel=0 note=64 velocity=75 time=13, total_time: 119520
note_on channel=0 note=69 velocity=75 time=0, total_time: 119520
control_change channel=0 control=64 value=0 time=1, total_time: 119521
note_on channel=0 note=64 velocity=0 time=118, total_time: 119639
note_on channel=0 note=69 velocity=0 time=0, total_time: 119639
note_on channel=0 note=64 velocity=75 time=121, total_time: 119760
note_on channel=0 note=69 velocity=75 time=0, total_time: 119760
note_on channel=0 note=64 velocity=0 time=119, total_time: 119879
note_on channel=0 note=69 velocity=0 time=0, total_time: 119879
note_on channel=0 note=58 velocity=75 time=121, total_time: 120000
control_change channel=0 control=64 value=127 time=2, total_time: 120002
note_on channel=0 note=58 velocity=0 time=225, total_time: 120227
note_on channel=0 note=62 velocity=75 time=13, total_time: 120240
note_on channel=0 note=65 velocity=75 time=0, total_time: 120240
control_change channel=0 control=64 value=0 time=1, total_time: 120241
note_on channel=0 note=62 velocity=0 time=118, total_time: 120359
note_on channel=0 note=65 velocity=0 time=0, total_time: 120359
note_on channel=0 note=62 velocity=75 time=121, total_time: 120480
note_on channel=0 note=65 velocity=75 time=0, total_time: 120480
note_on channel=0 note=62 velocity=0 time=119, total_time: 120599
note_on channel=0 note=65 velocity=0 time=0, total_time: 120599
note_on channel=0 note=60 velocity=75 time=121, total_time: 120720
control_change channel=0 control=64 value=127 time=2, total_time: 120722
note_on channel=0 note=60 velocity=0 time=225, total_time: 120947
note_on channel=0 note=64 velocity=75 time=13, total_time: 120960
note_on channel=0 note=67 velocity=75 time=0, total_time: 120960
control_change channel=0 control=64 value=0 time=1, total_time: 120961
note_on channel=0 note=64 velocity=0 time=118, total_time: 121079
note_on channel=0 note=67 velocity=0 time=0, total_time: 121079
note_on channel=0 note=64 velocity=75 time=121, total_time: 121200
note_on channel=0 note=67 velocity=75 time=0, total_time: 121200
note_on channel=0 note=64 velocity=0 time=119, total_time: 121319
note_on channel=0 note=67 velocity=0 time=0, total_time: 121319
note_on channel=0 note=65 velocity=75 time=121, total_time: 121440
control_change channel=0 control=64 value=127 time=2, total_time: 121442
note_on channel=0 note=65 velocity=0 time=225, total_time: 121667
note_on channel=0 note=69 velocity=75 time=13, total_time: 121680
note_on channel=0 note=72 velocity=75 time=0, total_time: 121680
control_change channel=0 control=64 value=0 time=1, total_time: 121681
note_on channel=0 note=69 velocity=0 time=118, total_time: 121799
note_on channel=0 note=72 velocity=0 time=0, total_time: 121799
note_on channel=0 note=69 velocity=75 time=121, total_time: 121920
note_on channel=0 note=72 velocity=75 time=0, total_time: 121920
note_on channel=0 note=69 velocity=0 time=119, total_time: 122039
note_on channel=0 note=72 velocity=0 time=0, total_time: 122039
note_on channel=0 note=65 velocity=75 time=121, total_time: 122160
note_on channel=0 note=65 velocity=0 time=455, total_time: 122615
note_on channel=0 note=77 velocity=75 time=265, total_time: 122880
control_change channel=0 control=64 value=127 time=2, total_time: 122882
note_on channel=0 note=77 velocity=0 time=225, total_time: 123107
note_on channel=0 note=81 velocity=75 time=13, total_time: 123120
note_on channel=0 note=81 velocity=0 time=227, total_time: 123347
note_on channel=0 note=84 velocity=75 time=13, total_time: 123360
note_on channel=0 note=84 velocity=0 time=227, total_time: 123587
note_on channel=0 note=76 velocity=75 time=13, total_time: 123600
control_change channel=0 control=64 value=0 time=1, total_time: 123601
control_change channel=0 control=64 value=127 time=1, total_time: 123602
note_on channel=0 note=76 velocity=0 time=225, total_time: 123827
note_on channel=0 note=79 velocity=75 time=13, total_time: 123840
note_on channel=0 note=79 velocity=0 time=227, total_time: 124067
note_on channel=0 note=84 velocity=75 time=13, total_time: 124080
note_on channel=0 note=84 velocity=0 time=227, total_time: 124307
note_on channel=0 note=74 velocity=75 time=13, total_time: 124320
control_change channel=0 control=64 value=0 time=1, total_time: 124321
control_change channel=0 control=64 value=127 time=1, total_time: 124322
note_on channel=0 note=74 velocity=0 time=225, total_time: 124547
note_on channel=0 note=77 velocity=75 time=13, total_time: 124560
note_on channel=0 note=77 velocity=0 time=227, total_time: 124787
note_on channel=0 note=81 velocity=75 time=13, total_time: 124800
note_on channel=0 note=81 velocity=0 time=227, total_time: 125027
note_on channel=0 note=72 velocity=75 time=13, total_time: 125040
control_change channel=0 control=64 value=0 time=1, total_time: 125041
control_change channel=0 control=64 value=127 time=1, total_time: 125042
note_on channel=0 note=72 velocity=0 time=225, total_time: 125267
note_on channel=0 note=76 velocity=75 time=13, total_time: 125280
note_on channel=0 note=76 velocity=0 time=227, total_time: 125507
note_on channel=0 note=79 velocity=75 time=13, total_time: 125520
note_on channel=0 note=79 velocity=0 time=227, total_time: 125747
note_on channel=0 note=70 velocity=75 time=13, total_time: 125760
control_change channel=0 control=64 value=0 time=1, total_time: 125761
control_change channel=0 control=64 value=127 time=1, total_time: 125762
note_on channel=0 note=70 velocity=0 time=225, total_time: 125987
note_on channel=0 note=74 velocity=75 time=13, total_time: 126000
note_on channel=0 note=74 velocity=0 time=227, total_time: 126227
note_on channel=0 note=77 velocity=75 time=13, total_time: 126240
note_on channel=0 note=77 velocity=0 time=227, total_time: 126467
note_on channel=0 note=72 velocity=75 time=13, total_time: 126480
control_change channel=0 control=64 value=0 time=1, total_time: 126481
control_change channel=0 control=64 value=127 time=1, total_time: 126482
note_on channel=0 note=72 velocity=0 time=225, total_time: 126707
note_on channel=0 note=79 velocity=75 time=13, total_time: 126720
note_on channel=0 note=79 velocity=0 time=239, total_time: 126959
note_on channel=0 note=82 velocity=75 time=1, total_time: 126960
note_on channel=0 note=82 velocity=0 time=227, total_time: 127187
note_on channel=0 note=65 velocity=75 time=13, total_time: 127200
control_change channel=0 control=64 value=0 time=1, total_time: 127201
control_change channel=0 control=64 value=127 time=1, total_time: 127202
note_on channel=0 note=65 velocity=0 time=225, total_time: 127427
note_on channel=0 note=69 velocity=75 time=13, total_time: 127440
note_on channel=0 note=69 velocity=0 time=227, total_time: 127667
note_on channel=0 note=72 velocity=75 time=13, total_time: 127680
note_on channel=0 note=72 velocity=0 time=227, total_time: 127907
note_on channel=0 note=77 velocity=75 time=13, total_time: 127920
control_change channel=0 control=64 value=0 time=1, total_time: 127921
note_on channel=0 note=77 velocity=0 time=682, total_time: 128603
MetaMessage('end_of_track', time=1), total_time: 128604

